<?xml version="1.0" encoding="UTF-8" standalone="no"?>
<!DOCTYPE svg PUBLIC "-//W3C//DTD SVG 1.1//EN"
 "http://www.w3.org/Graphics/SVG/1.1/DTD/svg11.dtd">
<!-- Generated by graphviz version 2.40.1 (20161225.0304)
 -->
<!-- Title: oneDegreeRelationshipsDiagram Pages: 1 -->
<svg width="452pt" height="161pt"
 viewBox="0.00 0.00 452.00 160.70" xmlns="http://www.w3.org/2000/svg" xmlns:xlink="http://www.w3.org/1999/xlink">
<g id="graph0" class="graph" transform="scale(1 1) rotate(0) translate(4 156.7)">
<title>oneDegreeRelationshipsDiagram</title>
<polygon fill="#ffffff" stroke="transparent" points="-4,4 -4,-156.7 448,-156.7 448,4 -4,4"/>
<text text-anchor="middle" x="72.4936" y="-7.3" font-family="Helvetica,sans-Serif" font-size="11.00" fill="#000000">Generated by SchemaSpy</text>
<!-- items -->
<g id="node1" class="node">
<title>items</title>
<g id="a_node1"><a xlink:href="../../tables/items.html" xlink:title="items" target="_top">
<polygon fill="#ffffff" stroke="transparent" points="253,-43.7 253,-148.7 436,-148.7 436,-43.7 253,-43.7"/>
<polygon fill="#f5f5f5" stroke="transparent" points="253.5,-125.2 253.5,-148.2 436.5,-148.2 436.5,-125.2 253.5,-125.2"/>
<polygon fill="none" stroke="#000000" points="253.5,-125.2 253.5,-148.2 436.5,-148.2 436.5,-125.2 253.5,-125.2"/>
<text text-anchor="start" x="258.5" y="-134.3" font-family="Helvetica,sans-Serif" font-weight="bold" font-size="11.00" fill="#000000">items</text>
<text text-anchor="start" x="401.5437" y="-133.3" font-family="Helvetica,sans-Serif" font-size="11.00" fill="#000000">[table]</text>
<polygon fill="none" stroke="#000000" points="253.5,-103.2 253.5,-125.2 436.5,-125.2 436.5,-103.2 253.5,-103.2"/>
<image xlink:href="../../images/primaryKeys.png" width="11px" height="12px" preserveAspectRatio="xMinYMin meet" x="258.5" y="-120.2"/>
<text text-anchor="start" x="273.5" y="-110.3" font-family="Helvetica,sans-Serif" font-size="11.00" fill="#000000">id</text>
<polygon fill="#ffffff" stroke="transparent" points="253.5,-81.2 253.5,-103.2 436.5,-103.2 436.5,-81.2 253.5,-81.2"/>
<polygon fill="none" stroke="#000000" points="253.5,-81.2 253.5,-103.2 436.5,-103.2 436.5,-81.2 253.5,-81.2"/>
<image xlink:href="../../images/foreignKeys.png" width="11px" height="12px" preserveAspectRatio="xMinYMin meet" x="258.5" y="-98.2"/>
<text text-anchor="start" x="273.5" y="-88.3" font-family="Helvetica,sans-Serif" font-size="11.00" fill="#000000">category_id</text>
<polygon fill="none" stroke="#000000" points="253.5,-62.2 253.5,-81.2 436.5,-81.2 436.5,-62.2 253.5,-62.2"/>
<text text-anchor="start" x="256.5" y="-68.3" font-family="Helvetica,sans-Serif" font-size="11.00" fill="#000000">...</text>
<polygon fill="#ffffff" stroke="transparent" points="253.5,-43.2 253.5,-62.2 330.5,-62.2 330.5,-43.2 253.5,-43.2"/>
<polygon fill="none" stroke="#000000" points="253.5,-43.2 253.5,-62.2 330.5,-62.2 330.5,-43.2 253.5,-43.2"/>
<text text-anchor="start" x="256.5" y="-49.3" font-family="Helvetica,sans-Serif" font-size="11.00" fill="#000000">&lt; 1</text>
<polygon fill="#ffffff" stroke="transparent" points="330.5,-43.2 330.5,-62.2 396.5,-62.2 396.5,-43.2 330.5,-43.2"/>
<polygon fill="none" stroke="#000000" points="330.5,-43.2 330.5,-62.2 396.5,-62.2 396.5,-43.2 330.5,-43.2"/>
<text text-anchor="start" x="361.1105" y="-49.3" font-family="Helvetica,sans-Serif" font-size="11.00" fill="#000000">0 rows</text>
<polygon fill="#ffffff" stroke="transparent" points="396.5,-43.2 396.5,-62.2 436.5,-62.2 436.5,-43.2 396.5,-43.2"/>
<polygon fill="none" stroke="#000000" points="396.5,-43.2 396.5,-62.2 436.5,-62.2 436.5,-43.2 396.5,-43.2"/>
<text text-anchor="start" x="427.3862" y="-49.3" font-family="Helvetica,sans-Serif" font-size="11.00" fill="#000000"> &#160;</text>
</a>
</g>
</g>
<!-- categories -->
<g id="node2" class="node">
<title>categories</title>
<g id="a_node2"><a xlink:href="../../tables/categories.html" xlink:title="categories" target="_top">
<polygon fill="#ffffff" stroke="transparent" points="8,-38.2 8,-128.2 204,-128.2 204,-38.2 8,-38.2"/>
<polygon fill="#f5f5f5" stroke="transparent" points="10,-103.2 10,-126.2 202,-126.2 202,-103.2 10,-103.2"/>
<polygon fill="none" stroke="#000000" points="10,-103.2 10,-126.2 202,-126.2 202,-103.2 10,-103.2"/>
<text text-anchor="start" x="15" y="-112.3" font-family="Helvetica,sans-Serif" font-weight="bold" font-size="11.00" fill="#000000">categories</text>
<text text-anchor="start" x="167.0437" y="-111.3" font-family="Helvetica,sans-Serif" font-size="11.00" fill="#000000">[table]</text>
<polygon fill="none" stroke="#000000" points="10,-81.2 10,-103.2 119,-103.2 119,-81.2 10,-81.2"/>
<image xlink:href="../../images/primaryKeys.png" width="11px" height="12px" preserveAspectRatio="xMinYMin meet" x="15" y="-98.2"/>
<text text-anchor="start" x="30" y="-88.3" font-family="Helvetica,sans-Serif" font-size="11.00" fill="#000000">category_id</text>
<polygon fill="none" stroke="#000000" points="119,-81.2 119,-103.2 202,-103.2 202,-81.2 119,-81.2"/>
<text text-anchor="start" x="121.6783" y="-88.9" font-family="Helvetica,sans-Serif" font-size="11.00" fill="#000000">int unsigned[10]</text>
<polygon fill="none" stroke="#000000" points="10,-59.2 10,-81.2 119,-81.2 119,-59.2 10,-59.2"/>
<text text-anchor="start" x="30" y="-66.3" font-family="Helvetica,sans-Serif" font-size="11.00" fill="#000000">category_name</text>
<polygon fill="none" stroke="#000000" points="119,-59.2 119,-81.2 202,-81.2 202,-59.2 119,-59.2"/>
<text text-anchor="start" x="122" y="-66.9" font-family="Helvetica,sans-Serif" font-size="11.00" fill="#000000">varchar[255]</text>
<polygon fill="#ffffff" stroke="transparent" points="10,-40.2 10,-59.2 56,-59.2 56,-40.2 10,-40.2"/>
<polygon fill="none" stroke="#000000" points="10,-40.2 10,-59.2 56,-59.2 56,-40.2 10,-40.2"/>
<text text-anchor="start" x="13" y="-46.3" font-family="Helvetica,sans-Serif" font-size="11.00" fill="#000000">&lt; 0</text>
<polygon fill="#ffffff" stroke="transparent" points="56,-40.2 56,-59.2 119,-59.2 119,-40.2 56,-40.2"/>
<polygon fill="none" stroke="#000000" points="56,-40.2 56,-59.2 119,-59.2 119,-40.2 56,-40.2"/>
<text text-anchor="start" x="83.6105" y="-46.3" font-family="Helvetica,sans-Serif" font-size="11.00" fill="#000000">2 rows</text>
<polygon fill="#ffffff" stroke="transparent" points="119,-40.2 119,-59.2 202,-59.2 202,-40.2 119,-40.2"/>
<polygon fill="none" stroke="#000000" points="119,-40.2 119,-59.2 202,-59.2 202,-40.2 119,-40.2"/>
<text text-anchor="start" x="183.4053" y="-46.3" font-family="Helvetica,sans-Serif" font-size="11.00" fill="#000000">1 &gt;</text>
<polygon fill="none" stroke="#000000" stroke-width="2" points="9,-39.2 9,-127.2 203,-127.2 203,-39.2 9,-39.2"/>
</a>
</g>
</g>
<!-- items&#45;&gt;categories -->
<g id="edge1" class="edge">
<title>items:w&#45;&gt;categories:e</title>
<path fill="none" stroke="#000000" d="M239.0156,-92.2C226.6771,-92.2 219.1667,-92.2 202,-92.2"/>
<polygon fill="#000000" stroke="#000000" points="245.5,-92.2001 253.5,-95.8 249.5,-92.2 253.5,-92.2 253.5,-92.2 253.5,-92.2 249.5,-92.2 253.5,-88.6 245.5,-92.2001 245.5,-92.2001"/>
<ellipse fill="none" stroke="#000000" cx="242.3" cy="-92.2001" rx="3.2" ry="3.2"/>
</g>
</g>
</svg>
