<?xml version="1.0" encoding="UTF-8" standalone="no"?>
<!DOCTYPE svg PUBLIC "-//W3C//DTD SVG 1.1//EN"
 "http://www.w3.org/Graphics/SVG/1.1/DTD/svg11.dtd">
<!-- Generated by graphviz version 2.40.1 (20161225.0304)
 -->
<!-- Title: oneDegreeRelationshipsDiagram Pages: 1 -->
<svg width="452pt" height="954pt"
 viewBox="0.00 0.00 452.00 954.20" xmlns="http://www.w3.org/2000/svg" xmlns:xlink="http://www.w3.org/1999/xlink">
<g id="graph0" class="graph" transform="scale(1 1) rotate(0) translate(4 950.2)">
<title>oneDegreeRelationshipsDiagram</title>
<polygon fill="#ffffff" stroke="transparent" points="-4,4 -4,-950.2 448,-950.2 448,4 -4,4"/>
<text text-anchor="middle" x="72.4936" y="-7.3" font-family="Helvetica,sans-Serif" font-size="11.00" fill="#000000">Generated by SchemaSpy</text>
<!-- items -->
<g id="node1" class="node">
<title>items</title>
<g id="a_node1"><a xlink:href="../../tables/items.html" xlink:title="items" target="_top">
<polygon fill="#ffffff" stroke="transparent" points="166,-38.2 166,-942.2 436,-942.2 436,-38.2 166,-38.2"/>
<polygon fill="#f5f5f5" stroke="transparent" points="168,-917.2 168,-940.2 434,-940.2 434,-917.2 168,-917.2"/>
<polygon fill="none" stroke="#000000" points="168,-917.2 168,-940.2 434,-940.2 434,-917.2 168,-917.2"/>
<text text-anchor="start" x="173" y="-926.3" font-family="Helvetica,sans-Serif" font-weight="bold" font-size="11.00" fill="#000000">items</text>
<text text-anchor="start" x="399.0437" y="-925.3" font-family="Helvetica,sans-Serif" font-size="11.00" fill="#000000">[table]</text>
<polygon fill="none" stroke="#000000" points="168,-895.2 168,-917.2 351,-917.2 351,-895.2 168,-895.2"/>
<image xlink:href="../../images/primaryKeys.png" width="11px" height="12px" preserveAspectRatio="xMinYMin meet" x="173" y="-912.2"/>
<text text-anchor="start" x="188" y="-902.3" font-family="Helvetica,sans-Serif" font-size="11.00" fill="#000000">id</text>
<polygon fill="none" stroke="#000000" points="351,-895.2 351,-917.2 434,-917.2 434,-895.2 351,-895.2"/>
<text text-anchor="start" x="353.6783" y="-902.9" font-family="Helvetica,sans-Serif" font-size="11.00" fill="#000000">int unsigned[10]</text>
<polygon fill="none" stroke="#000000" points="168,-873.2 168,-895.2 351,-895.2 351,-873.2 168,-873.2"/>
<text text-anchor="start" x="188" y="-880.3" font-family="Helvetica,sans-Serif" font-size="11.00" fill="#000000">shop_id</text>
<polygon fill="none" stroke="#000000" points="351,-873.2 351,-895.2 434,-895.2 434,-873.2 351,-873.2"/>
<text text-anchor="start" x="354" y="-880.9" font-family="Helvetica,sans-Serif" font-size="11.00" fill="#000000">int[10]</text>
<polygon fill="none" stroke="#000000" points="168,-851.2 168,-873.2 351,-873.2 351,-851.2 168,-851.2"/>
<text text-anchor="start" x="188" y="-858.3" font-family="Helvetica,sans-Serif" font-size="11.00" fill="#000000">jan_code</text>
<polygon fill="none" stroke="#000000" points="351,-851.2 351,-873.2 434,-873.2 434,-851.2 351,-851.2"/>
<text text-anchor="start" x="354" y="-858.9" font-family="Helvetica,sans-Serif" font-size="11.00" fill="#000000">varchar[13]</text>
<polygon fill="none" stroke="#000000" points="168,-829.2 168,-851.2 351,-851.2 351,-829.2 168,-829.2"/>
<text text-anchor="start" x="188" y="-836.3" font-family="Helvetica,sans-Serif" font-size="11.00" fill="#000000">brand_id</text>
<polygon fill="none" stroke="#000000" points="351,-829.2 351,-851.2 434,-851.2 434,-829.2 351,-829.2"/>
<text text-anchor="start" x="354" y="-836.9" font-family="Helvetica,sans-Serif" font-size="11.00" fill="#000000">int[10]</text>
<polygon fill="#ffffff" stroke="transparent" points="168,-807.2 168,-829.2 351,-829.2 351,-807.2 168,-807.2"/>
<polygon fill="none" stroke="#000000" points="168,-807.2 168,-829.2 351,-829.2 351,-807.2 168,-807.2"/>
<image xlink:href="../../images/foreignKeys.png" width="11px" height="12px" preserveAspectRatio="xMinYMin meet" x="173" y="-824.2"/>
<text text-anchor="start" x="188" y="-814.3" font-family="Helvetica,sans-Serif" font-size="11.00" fill="#000000">category_id</text>
<polygon fill="none" stroke="#000000" points="351,-807.2 351,-829.2 434,-829.2 434,-807.2 351,-807.2"/>
<text text-anchor="start" x="353.6783" y="-814.9" font-family="Helvetica,sans-Serif" font-size="11.00" fill="#000000">int unsigned[10]</text>
<polygon fill="none" stroke="#000000" points="168,-785.2 168,-807.2 351,-807.2 351,-785.2 168,-785.2"/>
<text text-anchor="start" x="188" y="-792.3" font-family="Helvetica,sans-Serif" font-size="11.00" fill="#000000">sub_category_id</text>
<polygon fill="none" stroke="#000000" points="351,-785.2 351,-807.2 434,-807.2 434,-785.2 351,-785.2"/>
<text text-anchor="start" x="354" y="-792.9" font-family="Helvetica,sans-Serif" font-size="11.00" fill="#000000">int[10]</text>
<polygon fill="none" stroke="#000000" points="168,-763.2 168,-785.2 351,-785.2 351,-763.2 168,-763.2"/>
<text text-anchor="start" x="188" y="-770.3" font-family="Helvetica,sans-Serif" font-size="11.00" fill="#000000">name</text>
<polygon fill="none" stroke="#000000" points="351,-763.2 351,-785.2 434,-785.2 434,-763.2 351,-763.2"/>
<text text-anchor="start" x="354" y="-770.9" font-family="Helvetica,sans-Serif" font-size="11.00" fill="#000000">varchar[50]</text>
<polygon fill="none" stroke="#000000" points="168,-741.2 168,-763.2 351,-763.2 351,-741.2 168,-741.2"/>
<text text-anchor="start" x="188" y="-748.3" font-family="Helvetica,sans-Serif" font-size="11.00" fill="#000000">detail_title</text>
<polygon fill="none" stroke="#000000" points="351,-741.2 351,-763.2 434,-763.2 434,-741.2 351,-741.2"/>
<text text-anchor="start" x="354" y="-748.9" font-family="Helvetica,sans-Serif" font-size="11.00" fill="#000000">varchar[100]</text>
<polygon fill="none" stroke="#000000" points="168,-719.2 168,-741.2 351,-741.2 351,-719.2 168,-719.2"/>
<text text-anchor="start" x="188" y="-726.3" font-family="Helvetica,sans-Serif" font-size="11.00" fill="#000000">detail</text>
<polygon fill="none" stroke="#000000" points="351,-719.2 351,-741.2 434,-741.2 434,-719.2 351,-719.2"/>
<text text-anchor="start" x="354" y="-726.9" font-family="Helvetica,sans-Serif" font-size="11.00" fill="#000000">varchar[2000]</text>
<polygon fill="none" stroke="#000000" points="168,-697.2 168,-719.2 351,-719.2 351,-697.2 168,-697.2"/>
<text text-anchor="start" x="188" y="-704.3" font-family="Helvetica,sans-Serif" font-size="11.00" fill="#000000">information</text>
<polygon fill="none" stroke="#000000" points="351,-697.2 351,-719.2 434,-719.2 434,-697.2 351,-697.2"/>
<text text-anchor="start" x="354" y="-704.9" font-family="Helvetica,sans-Serif" font-size="11.00" fill="#000000">varchar[2000]</text>
<polygon fill="none" stroke="#000000" points="168,-675.2 168,-697.2 351,-697.2 351,-675.2 168,-675.2"/>
<text text-anchor="start" x="188" y="-682.3" font-family="Helvetica,sans-Serif" font-size="11.00" fill="#000000">item_no</text>
<polygon fill="none" stroke="#000000" points="351,-675.2 351,-697.2 434,-697.2 434,-675.2 351,-675.2"/>
<text text-anchor="start" x="354" y="-682.9" font-family="Helvetica,sans-Serif" font-size="11.00" fill="#000000">varchar[100]</text>
<polygon fill="none" stroke="#000000" points="168,-653.2 168,-675.2 351,-675.2 351,-653.2 168,-653.2"/>
<text text-anchor="start" x="188" y="-660.3" font-family="Helvetica,sans-Serif" font-size="11.00" fill="#000000">model_no</text>
<polygon fill="none" stroke="#000000" points="351,-653.2 351,-675.2 434,-675.2 434,-653.2 351,-653.2"/>
<text text-anchor="start" x="354" y="-660.9" font-family="Helvetica,sans-Serif" font-size="11.00" fill="#000000">varchar[100]</text>
<polygon fill="none" stroke="#000000" points="168,-631.2 168,-653.2 351,-653.2 351,-631.2 168,-631.2"/>
<text text-anchor="start" x="188" y="-638.3" font-family="Helvetica,sans-Serif" font-size="11.00" fill="#000000">is_maker_request_price</text>
<polygon fill="none" stroke="#000000" points="351,-631.2 351,-653.2 434,-653.2 434,-631.2 351,-631.2"/>
<text text-anchor="start" x="354" y="-638.9" font-family="Helvetica,sans-Serif" font-size="11.00" fill="#000000">bit[1]</text>
<polygon fill="none" stroke="#000000" points="168,-609.2 168,-631.2 351,-631.2 351,-609.2 168,-609.2"/>
<text text-anchor="start" x="188" y="-616.3" font-family="Helvetica,sans-Serif" font-size="11.00" fill="#000000">open_price</text>
<polygon fill="none" stroke="#000000" points="351,-609.2 351,-631.2 434,-631.2 434,-609.2 351,-609.2"/>
<text text-anchor="start" x="354" y="-616.9" font-family="Helvetica,sans-Serif" font-size="11.00" fill="#000000">int[10]</text>
<polygon fill="none" stroke="#000000" points="168,-587.2 168,-609.2 351,-609.2 351,-587.2 168,-587.2"/>
<text text-anchor="start" x="188" y="-594.3" font-family="Helvetica,sans-Serif" font-size="11.00" fill="#000000">normal_price</text>
<polygon fill="none" stroke="#000000" points="351,-587.2 351,-609.2 434,-609.2 434,-587.2 351,-587.2"/>
<text text-anchor="start" x="354" y="-594.9" font-family="Helvetica,sans-Serif" font-size="11.00" fill="#000000">int[10]</text>
<polygon fill="none" stroke="#000000" points="168,-565.2 168,-587.2 351,-587.2 351,-565.2 168,-565.2"/>
<text text-anchor="start" x="188" y="-572.3" font-family="Helvetica,sans-Serif" font-size="11.00" fill="#000000">tax</text>
<polygon fill="none" stroke="#000000" points="351,-565.2 351,-587.2 434,-587.2 434,-565.2 351,-565.2"/>
<text text-anchor="start" x="354" y="-572.9" font-family="Helvetica,sans-Serif" font-size="11.00" fill="#000000">int[10]</text>
<polygon fill="none" stroke="#000000" points="168,-543.2 168,-565.2 351,-565.2 351,-543.2 168,-543.2"/>
<text text-anchor="start" x="188" y="-550.3" font-family="Helvetica,sans-Serif" font-size="11.00" fill="#000000">start_datetime</text>
<polygon fill="none" stroke="#000000" points="351,-543.2 351,-565.2 434,-565.2 434,-543.2 351,-543.2"/>
<text text-anchor="start" x="354" y="-550.9" font-family="Helvetica,sans-Serif" font-size="11.00" fill="#000000">datetime[19]</text>
<polygon fill="none" stroke="#000000" points="168,-521.2 168,-543.2 351,-543.2 351,-521.2 168,-521.2"/>
<text text-anchor="start" x="188" y="-528.3" font-family="Helvetica,sans-Serif" font-size="11.00" fill="#000000">end_datetime</text>
<polygon fill="none" stroke="#000000" points="351,-521.2 351,-543.2 434,-543.2 434,-521.2 351,-521.2"/>
<text text-anchor="start" x="354" y="-528.9" font-family="Helvetica,sans-Serif" font-size="11.00" fill="#000000">datetime[19]</text>
<polygon fill="none" stroke="#000000" points="168,-499.2 168,-521.2 351,-521.2 351,-499.2 168,-499.2"/>
<text text-anchor="start" x="188" y="-506.3" font-family="Helvetica,sans-Serif" font-size="11.00" fill="#000000">can_reserve</text>
<polygon fill="none" stroke="#000000" points="351,-499.2 351,-521.2 434,-521.2 434,-499.2 351,-499.2"/>
<text text-anchor="start" x="354" y="-506.9" font-family="Helvetica,sans-Serif" font-size="11.00" fill="#000000">bit[1]</text>
<polygon fill="none" stroke="#000000" points="168,-477.2 168,-499.2 351,-499.2 351,-477.2 168,-477.2"/>
<text text-anchor="start" x="188" y="-484.3" font-family="Helvetica,sans-Serif" font-size="11.00" fill="#000000">reserve_start_datetime</text>
<polygon fill="none" stroke="#000000" points="351,-477.2 351,-499.2 434,-499.2 434,-477.2 351,-477.2"/>
<text text-anchor="start" x="354" y="-484.9" font-family="Helvetica,sans-Serif" font-size="11.00" fill="#000000">datetime[19]</text>
<polygon fill="none" stroke="#000000" points="168,-455.2 168,-477.2 351,-477.2 351,-455.2 168,-455.2"/>
<text text-anchor="start" x="188" y="-462.3" font-family="Helvetica,sans-Serif" font-size="11.00" fill="#000000">is_postage_free</text>
<polygon fill="none" stroke="#000000" points="351,-455.2 351,-477.2 434,-477.2 434,-455.2 351,-455.2"/>
<text text-anchor="start" x="354" y="-462.9" font-family="Helvetica,sans-Serif" font-size="11.00" fill="#000000">bit[1]</text>
<polygon fill="none" stroke="#000000" points="168,-433.2 168,-455.2 351,-455.2 351,-433.2 168,-433.2"/>
<text text-anchor="start" x="188" y="-440.3" font-family="Helvetica,sans-Serif" font-size="11.00" fill="#000000">delivery_type_id</text>
<polygon fill="none" stroke="#000000" points="351,-433.2 351,-455.2 434,-455.2 434,-433.2 351,-433.2"/>
<text text-anchor="start" x="354" y="-440.9" font-family="Helvetica,sans-Serif" font-size="11.00" fill="#000000">int[10]</text>
<polygon fill="none" stroke="#000000" points="168,-411.2 168,-433.2 351,-433.2 351,-411.2 168,-411.2"/>
<text text-anchor="start" x="188" y="-418.3" font-family="Helvetica,sans-Serif" font-size="11.00" fill="#000000">item_size_id</text>
<polygon fill="none" stroke="#000000" points="351,-411.2 351,-433.2 434,-433.2 434,-411.2 351,-411.2"/>
<text text-anchor="start" x="354" y="-418.9" font-family="Helvetica,sans-Serif" font-size="11.00" fill="#000000">int[10]</text>
<polygon fill="none" stroke="#000000" points="168,-389.2 168,-411.2 351,-411.2 351,-389.2 168,-389.2"/>
<text text-anchor="start" x="188" y="-396.3" font-family="Helvetica,sans-Serif" font-size="11.00" fill="#000000">is_consolidate_exclude</text>
<polygon fill="none" stroke="#000000" points="351,-389.2 351,-411.2 434,-411.2 434,-389.2 351,-389.2"/>
<text text-anchor="start" x="354" y="-396.9" font-family="Helvetica,sans-Serif" font-size="11.00" fill="#000000">bit[1]</text>
<polygon fill="none" stroke="#000000" points="168,-367.2 168,-389.2 351,-389.2 351,-367.2 168,-367.2"/>
<text text-anchor="start" x="188" y="-374.3" font-family="Helvetica,sans-Serif" font-size="11.00" fill="#000000">is_purchase_limit</text>
<polygon fill="none" stroke="#000000" points="351,-367.2 351,-389.2 434,-389.2 434,-367.2 351,-367.2"/>
<text text-anchor="start" x="354" y="-374.9" font-family="Helvetica,sans-Serif" font-size="11.00" fill="#000000">bit[1]</text>
<polygon fill="none" stroke="#000000" points="168,-345.2 168,-367.2 351,-367.2 351,-345.2 168,-345.2"/>
<text text-anchor="start" x="188" y="-352.3" font-family="Helvetica,sans-Serif" font-size="11.00" fill="#000000">purchase_limit_condition_id</text>
<polygon fill="none" stroke="#000000" points="351,-345.2 351,-367.2 434,-367.2 434,-345.2 351,-345.2"/>
<text text-anchor="start" x="354" y="-352.9" font-family="Helvetica,sans-Serif" font-size="11.00" fill="#000000">int[10]</text>
<polygon fill="none" stroke="#000000" points="168,-323.2 168,-345.2 351,-345.2 351,-323.2 168,-323.2"/>
<text text-anchor="start" x="188" y="-330.3" font-family="Helvetica,sans-Serif" font-size="11.00" fill="#000000">purchase_limit</text>
<polygon fill="none" stroke="#000000" points="351,-323.2 351,-345.2 434,-345.2 434,-323.2 351,-323.2"/>
<text text-anchor="start" x="354" y="-330.9" font-family="Helvetica,sans-Serif" font-size="11.00" fill="#000000">int[10]</text>
<polygon fill="none" stroke="#000000" points="168,-301.2 168,-323.2 351,-323.2 351,-301.2 168,-301.2"/>
<text text-anchor="start" x="188" y="-308.3" font-family="Helvetica,sans-Serif" font-size="11.00" fill="#000000">has_youtube</text>
<polygon fill="none" stroke="#000000" points="351,-301.2 351,-323.2 434,-323.2 434,-301.2 351,-301.2"/>
<text text-anchor="start" x="354" y="-308.9" font-family="Helvetica,sans-Serif" font-size="11.00" fill="#000000">bit[1]</text>
<polygon fill="none" stroke="#000000" points="168,-279.2 168,-301.2 351,-301.2 351,-279.2 168,-279.2"/>
<text text-anchor="start" x="188" y="-286.3" font-family="Helvetica,sans-Serif" font-size="11.00" fill="#000000">youtube_tag</text>
<polygon fill="none" stroke="#000000" points="351,-279.2 351,-301.2 434,-301.2 434,-279.2 351,-279.2"/>
<text text-anchor="start" x="354" y="-286.9" font-family="Helvetica,sans-Serif" font-size="11.00" fill="#000000">varchar[1000]</text>
<polygon fill="none" stroke="#000000" points="168,-257.2 168,-279.2 351,-279.2 351,-257.2 168,-257.2"/>
<text text-anchor="start" x="188" y="-264.3" font-family="Helvetica,sans-Serif" font-size="11.00" fill="#000000">has_color</text>
<polygon fill="none" stroke="#000000" points="351,-257.2 351,-279.2 434,-279.2 434,-257.2 351,-257.2"/>
<text text-anchor="start" x="354" y="-264.9" font-family="Helvetica,sans-Serif" font-size="11.00" fill="#000000">bit[1]</text>
<polygon fill="none" stroke="#000000" points="168,-235.2 168,-257.2 351,-257.2 351,-235.2 168,-235.2"/>
<text text-anchor="start" x="188" y="-242.3" font-family="Helvetica,sans-Serif" font-size="11.00" fill="#000000">has_size</text>
<polygon fill="none" stroke="#000000" points="351,-235.2 351,-257.2 434,-257.2 434,-235.2 351,-235.2"/>
<text text-anchor="start" x="354" y="-242.9" font-family="Helvetica,sans-Serif" font-size="11.00" fill="#000000">bit[1]</text>
<polygon fill="none" stroke="#000000" points="168,-213.2 168,-235.2 351,-235.2 351,-213.2 168,-213.2"/>
<text text-anchor="start" x="188" y="-220.3" font-family="Helvetica,sans-Serif" font-size="11.00" fill="#000000">has_option</text>
<polygon fill="none" stroke="#000000" points="351,-213.2 351,-235.2 434,-235.2 434,-213.2 351,-213.2"/>
<text text-anchor="start" x="354" y="-220.9" font-family="Helvetica,sans-Serif" font-size="11.00" fill="#000000">bit[1]</text>
<polygon fill="none" stroke="#000000" points="168,-191.2 168,-213.2 351,-213.2 351,-191.2 168,-191.2"/>
<text text-anchor="start" x="188" y="-198.3" font-family="Helvetica,sans-Serif" font-size="11.00" fill="#000000">has_check</text>
<polygon fill="none" stroke="#000000" points="351,-191.2 351,-213.2 434,-213.2 434,-191.2 351,-191.2"/>
<text text-anchor="start" x="354" y="-198.9" font-family="Helvetica,sans-Serif" font-size="11.00" fill="#000000">bit[1]</text>
<polygon fill="none" stroke="#000000" points="168,-169.2 168,-191.2 351,-191.2 351,-169.2 168,-169.2"/>
<text text-anchor="start" x="188" y="-176.3" font-family="Helvetica,sans-Serif" font-size="11.00" fill="#000000">one_stories_url</text>
<polygon fill="none" stroke="#000000" points="351,-169.2 351,-191.2 434,-191.2 434,-169.2 351,-169.2"/>
<text text-anchor="start" x="354" y="-176.9" font-family="Helvetica,sans-Serif" font-size="11.00" fill="#000000">varchar[200]</text>
<polygon fill="none" stroke="#000000" points="168,-147.2 168,-169.2 351,-169.2 351,-147.2 168,-147.2"/>
<text text-anchor="start" x="188" y="-154.3" font-family="Helvetica,sans-Serif" font-size="11.00" fill="#000000">filter_color_id</text>
<polygon fill="none" stroke="#000000" points="351,-147.2 351,-169.2 434,-169.2 434,-147.2 351,-147.2"/>
<text text-anchor="start" x="354" y="-154.9" font-family="Helvetica,sans-Serif" font-size="11.00" fill="#000000">int[10]</text>
<polygon fill="none" stroke="#000000" points="168,-125.2 168,-147.2 351,-147.2 351,-125.2 168,-125.2"/>
<text text-anchor="start" x="188" y="-132.3" font-family="Helvetica,sans-Serif" font-size="11.00" fill="#000000">filter_tag_id</text>
<polygon fill="none" stroke="#000000" points="351,-125.2 351,-147.2 434,-147.2 434,-125.2 351,-125.2"/>
<text text-anchor="start" x="354" y="-132.9" font-family="Helvetica,sans-Serif" font-size="11.00" fill="#000000">int[10]</text>
<polygon fill="none" stroke="#000000" points="168,-103.2 168,-125.2 351,-125.2 351,-103.2 168,-103.2"/>
<text text-anchor="start" x="188" y="-110.3" font-family="Helvetica,sans-Serif" font-size="11.00" fill="#000000">created_at</text>
<polygon fill="none" stroke="#000000" points="351,-103.2 351,-125.2 434,-125.2 434,-103.2 351,-103.2"/>
<text text-anchor="start" x="354" y="-110.9" font-family="Helvetica,sans-Serif" font-size="11.00" fill="#000000">datetime[19]</text>
<polygon fill="none" stroke="#000000" points="168,-81.2 168,-103.2 351,-103.2 351,-81.2 168,-81.2"/>
<text text-anchor="start" x="188" y="-88.3" font-family="Helvetica,sans-Serif" font-size="11.00" fill="#000000">updated_at</text>
<polygon fill="none" stroke="#000000" points="351,-81.2 351,-103.2 434,-103.2 434,-81.2 351,-81.2"/>
<text text-anchor="start" x="354" y="-88.9" font-family="Helvetica,sans-Serif" font-size="11.00" fill="#000000">datetime[19]</text>
<polygon fill="none" stroke="#000000" points="168,-59.2 168,-81.2 351,-81.2 351,-59.2 168,-59.2"/>
<text text-anchor="start" x="188" y="-66.3" font-family="Helvetica,sans-Serif" font-size="11.00" fill="#000000">deleted_at</text>
<polygon fill="none" stroke="#000000" points="351,-59.2 351,-81.2 434,-81.2 434,-59.2 351,-59.2"/>
<text text-anchor="start" x="354" y="-66.9" font-family="Helvetica,sans-Serif" font-size="11.00" fill="#000000">datetime[19]</text>
<polygon fill="#ffffff" stroke="transparent" points="168,-40.2 168,-59.2 251,-59.2 251,-40.2 168,-40.2"/>
<polygon fill="none" stroke="#000000" points="168,-40.2 168,-59.2 251,-59.2 251,-40.2 168,-40.2"/>
<text text-anchor="start" x="171" y="-46.3" font-family="Helvetica,sans-Serif" font-size="11.00" fill="#000000">&lt; 1</text>
<polygon fill="#ffffff" stroke="transparent" points="251,-40.2 251,-59.2 351,-59.2 351,-40.2 251,-40.2"/>
<polygon fill="none" stroke="#000000" points="251,-40.2 251,-59.2 351,-59.2 351,-40.2 251,-40.2"/>
<text text-anchor="start" x="315.6105" y="-46.3" font-family="Helvetica,sans-Serif" font-size="11.00" fill="#000000">0 rows</text>
<polygon fill="#ffffff" stroke="transparent" points="351,-40.2 351,-59.2 434,-59.2 434,-40.2 351,-40.2"/>
<polygon fill="none" stroke="#000000" points="351,-40.2 351,-59.2 434,-59.2 434,-40.2 351,-40.2"/>
<text text-anchor="start" x="415.4053" y="-46.3" font-family="Helvetica,sans-Serif" font-size="11.00" fill="#000000">0 &gt;</text>
<polygon fill="none" stroke="#000000" stroke-width="2" points="167,-39.2 167,-941.2 435,-941.2 435,-39.2 167,-39.2"/>
</a>
</g>
</g>
<!-- categories -->
<g id="node2" class="node">
<title>categories</title>
<g id="a_node2"><a xlink:href="../../tables/categories.html" xlink:title="categories" target="_top">
<polygon fill="#ffffff" stroke="transparent" points="8,-769.7 8,-852.7 117,-852.7 117,-769.7 8,-769.7"/>
<polygon fill="#f5f5f5" stroke="transparent" points="8.5,-829.2 8.5,-852.2 117.5,-852.2 117.5,-829.2 8.5,-829.2"/>
<polygon fill="none" stroke="#000000" points="8.5,-829.2 8.5,-852.2 117.5,-852.2 117.5,-829.2 8.5,-829.2"/>
<text text-anchor="start" x="13.5" y="-838.3" font-family="Helvetica,sans-Serif" font-weight="bold" font-size="11.00" fill="#000000">categories</text>
<text text-anchor="start" x="82.5437" y="-837.3" font-family="Helvetica,sans-Serif" font-size="11.00" fill="#000000">[table]</text>
<polygon fill="none" stroke="#000000" points="8.5,-807.2 8.5,-829.2 117.5,-829.2 117.5,-807.2 8.5,-807.2"/>
<image xlink:href="../../images/primaryKeys.png" width="11px" height="12px" preserveAspectRatio="xMinYMin meet" x="13.5" y="-824.2"/>
<text text-anchor="start" x="28.5" y="-814.3" font-family="Helvetica,sans-Serif" font-size="11.00" fill="#000000">category_id</text>
<polygon fill="none" stroke="#000000" points="8.5,-788.2 8.5,-807.2 117.5,-807.2 117.5,-788.2 8.5,-788.2"/>
<text text-anchor="start" x="11.5" y="-794.3" font-family="Helvetica,sans-Serif" font-size="11.00" fill="#000000">...</text>
<polygon fill="#ffffff" stroke="transparent" points="8.5,-769.2 8.5,-788.2 39.5,-788.2 39.5,-769.2 8.5,-769.2"/>
<polygon fill="none" stroke="#000000" points="8.5,-769.2 8.5,-788.2 39.5,-788.2 39.5,-769.2 8.5,-769.2"/>
<text text-anchor="start" x="11.5" y="-775.3" font-family="Helvetica,sans-Serif" font-size="11.00" fill="#000000"> &#160;</text>
<polygon fill="#ffffff" stroke="transparent" points="39.5,-769.2 39.5,-788.2 86.5,-788.2 86.5,-769.2 39.5,-769.2"/>
<polygon fill="none" stroke="#000000" points="39.5,-769.2 39.5,-788.2 86.5,-788.2 86.5,-769.2 39.5,-769.2"/>
<text text-anchor="start" x="51.1105" y="-775.3" font-family="Helvetica,sans-Serif" font-size="11.00" fill="#000000">2 rows</text>
<polygon fill="#ffffff" stroke="transparent" points="86.5,-769.2 86.5,-788.2 117.5,-788.2 117.5,-769.2 86.5,-769.2"/>
<polygon fill="none" stroke="#000000" points="86.5,-769.2 86.5,-788.2 117.5,-788.2 117.5,-769.2 86.5,-769.2"/>
<text text-anchor="start" x="98.9053" y="-775.3" font-family="Helvetica,sans-Serif" font-size="11.00" fill="#000000">1 &gt;</text>
</a>
</g>
</g>
<!-- items&#45;&gt;categories -->
<g id="edge1" class="edge">
<title>items:w&#45;&gt;categories:e</title>
<path fill="none" stroke="#000000" d="M153.4203,-818.2C141.5435,-818.2 134.158,-818.2 117.5,-818.2"/>
<polygon fill="#000000" stroke="#000000" points="160,-818.2001 168,-821.8 164,-818.2 168,-818.2 168,-818.2 168,-818.2 164,-818.2 168,-814.6 160,-818.2001 160,-818.2001"/>
<ellipse fill="none" stroke="#000000" cx="156.8" cy="-818.2001" rx="3.2" ry="3.2"/>
</g>
</g>
</svg>
