<?xml version="1.0" encoding="UTF-8" standalone="no"?>
<!DOCTYPE svg PUBLIC "-//W3C//DTD SVG 1.1//EN"
 "http://www.w3.org/Graphics/SVG/1.1/DTD/svg11.dtd">
<!-- Generated by graphviz version 2.40.1 (20161225.0304)
 -->
<!-- Title: largeRelationshipsDiagram Pages: 1 -->
<svg width="365pt" height="950pt"
 viewBox="0.00 0.00 365.00 950.20" xmlns="http://www.w3.org/2000/svg" xmlns:xlink="http://www.w3.org/1999/xlink">
<g id="graph0" class="graph" transform="scale(1 1) rotate(0) translate(4 946.2)">
<title>largeRelationshipsDiagram</title>
<polygon fill="#ffffff" stroke="transparent" points="-4,4 -4,-946.2 361,-946.2 361,4 -4,4"/>
<text text-anchor="middle" x="72.4936" y="-7.3" font-family="Helvetica,sans-Serif" font-size="11.00" fill="#000000">Generated by SchemaSpy</text>
<!-- categories -->
<g id="node1" class="node">
<title>categories</title>
<g id="a_node1"><a xlink:href="../../tables/categories.html" xlink:title="categories" target="_top">
<polygon fill="#ffffff" stroke="transparent" points="8,-764.2 8,-850.2 117,-850.2 117,-764.2 8,-764.2"/>
<polygon fill="#f5f5f5" stroke="transparent" points="8.5,-827.2 8.5,-850.2 117.5,-850.2 117.5,-827.2 8.5,-827.2"/>
<polygon fill="none" stroke="#000000" points="8.5,-827.2 8.5,-850.2 117.5,-850.2 117.5,-827.2 8.5,-827.2"/>
<text text-anchor="start" x="13.5" y="-836.3" font-family="Helvetica,sans-Serif" font-weight="bold" font-size="11.00" fill="#000000">categories</text>
<text text-anchor="start" x="82.5437" y="-835.3" font-family="Helvetica,sans-Serif" font-size="11.00" fill="#000000">[table]</text>
<polygon fill="none" stroke="#000000" points="8.5,-805.2 8.5,-827.2 117.5,-827.2 117.5,-805.2 8.5,-805.2"/>
<image xlink:href="../../images/primaryKeys.png" width="11px" height="12px" preserveAspectRatio="xMinYMin meet" x="13.5" y="-822.2"/>
<text text-anchor="start" x="28.5" y="-812.3" font-family="Helvetica,sans-Serif" font-size="11.00" fill="#000000">category_id</text>
<polygon fill="none" stroke="#000000" points="8.5,-783.2 8.5,-805.2 117.5,-805.2 117.5,-783.2 8.5,-783.2"/>
<text text-anchor="start" x="28.5" y="-790.3" font-family="Helvetica,sans-Serif" font-size="11.00" fill="#000000">category_name</text>
<polygon fill="#ffffff" stroke="transparent" points="8.5,-764.2 8.5,-783.2 39.5,-783.2 39.5,-764.2 8.5,-764.2"/>
<polygon fill="none" stroke="#000000" points="8.5,-764.2 8.5,-783.2 39.5,-783.2 39.5,-764.2 8.5,-764.2"/>
<text text-anchor="start" x="11.5" y="-770.3" font-family="Helvetica,sans-Serif" font-size="11.00" fill="#000000"> &#160;</text>
<polygon fill="#ffffff" stroke="transparent" points="39.5,-764.2 39.5,-783.2 86.5,-783.2 86.5,-764.2 39.5,-764.2"/>
<polygon fill="none" stroke="#000000" points="39.5,-764.2 39.5,-783.2 86.5,-783.2 86.5,-764.2 39.5,-764.2"/>
<text text-anchor="start" x="51.1105" y="-770.3" font-family="Helvetica,sans-Serif" font-size="11.00" fill="#000000">2 rows</text>
<polygon fill="#ffffff" stroke="transparent" points="86.5,-764.2 86.5,-783.2 117.5,-783.2 117.5,-764.2 86.5,-764.2"/>
<polygon fill="none" stroke="#000000" points="86.5,-764.2 86.5,-783.2 117.5,-783.2 117.5,-764.2 86.5,-764.2"/>
<text text-anchor="start" x="98.9053" y="-770.3" font-family="Helvetica,sans-Serif" font-size="11.00" fill="#000000">1 &gt;</text>
</a>
</g>
</g>
<!-- items -->
<g id="node2" class="node">
<title>items</title>
<g id="a_node2"><a xlink:href="../../tables/items.html" xlink:title="items" target="_top">
<polygon fill="#ffffff" stroke="transparent" points="166,-38.2 166,-938.2 349,-938.2 349,-38.2 166,-38.2"/>
<polygon fill="#f5f5f5" stroke="transparent" points="166.5,-915.2 166.5,-938.2 349.5,-938.2 349.5,-915.2 166.5,-915.2"/>
<polygon fill="none" stroke="#000000" points="166.5,-915.2 166.5,-938.2 349.5,-938.2 349.5,-915.2 166.5,-915.2"/>
<text text-anchor="start" x="171.5" y="-924.3" font-family="Helvetica,sans-Serif" font-weight="bold" font-size="11.00" fill="#000000">items</text>
<text text-anchor="start" x="314.5437" y="-923.3" font-family="Helvetica,sans-Serif" font-size="11.00" fill="#000000">[table]</text>
<polygon fill="none" stroke="#000000" points="166.5,-893.2 166.5,-915.2 349.5,-915.2 349.5,-893.2 166.5,-893.2"/>
<image xlink:href="../../images/primaryKeys.png" width="11px" height="12px" preserveAspectRatio="xMinYMin meet" x="171.5" y="-910.2"/>
<text text-anchor="start" x="186.5" y="-900.3" font-family="Helvetica,sans-Serif" font-size="11.00" fill="#000000">id</text>
<polygon fill="none" stroke="#000000" points="166.5,-871.2 166.5,-893.2 349.5,-893.2 349.5,-871.2 166.5,-871.2"/>
<text text-anchor="start" x="186.5" y="-878.3" font-family="Helvetica,sans-Serif" font-size="11.00" fill="#000000">shop_id</text>
<polygon fill="none" stroke="#000000" points="166.5,-849.2 166.5,-871.2 349.5,-871.2 349.5,-849.2 166.5,-849.2"/>
<text text-anchor="start" x="186.5" y="-856.3" font-family="Helvetica,sans-Serif" font-size="11.00" fill="#000000">jan_code</text>
<polygon fill="none" stroke="#000000" points="166.5,-827.2 166.5,-849.2 349.5,-849.2 349.5,-827.2 166.5,-827.2"/>
<text text-anchor="start" x="186.5" y="-834.3" font-family="Helvetica,sans-Serif" font-size="11.00" fill="#000000">brand_id</text>
<polygon fill="#ffffff" stroke="transparent" points="166.5,-805.2 166.5,-827.2 349.5,-827.2 349.5,-805.2 166.5,-805.2"/>
<polygon fill="none" stroke="#000000" points="166.5,-805.2 166.5,-827.2 349.5,-827.2 349.5,-805.2 166.5,-805.2"/>
<image xlink:href="../../images/foreignKeys.png" width="11px" height="12px" preserveAspectRatio="xMinYMin meet" x="171.5" y="-822.2"/>
<text text-anchor="start" x="186.5" y="-812.3" font-family="Helvetica,sans-Serif" font-size="11.00" fill="#000000">category_id</text>
<polygon fill="none" stroke="#000000" points="166.5,-783.2 166.5,-805.2 349.5,-805.2 349.5,-783.2 166.5,-783.2"/>
<text text-anchor="start" x="186.5" y="-790.3" font-family="Helvetica,sans-Serif" font-size="11.00" fill="#000000">sub_category_id</text>
<polygon fill="none" stroke="#000000" points="166.5,-761.2 166.5,-783.2 349.5,-783.2 349.5,-761.2 166.5,-761.2"/>
<text text-anchor="start" x="186.5" y="-768.3" font-family="Helvetica,sans-Serif" font-size="11.00" fill="#000000">name</text>
<polygon fill="none" stroke="#000000" points="166.5,-739.2 166.5,-761.2 349.5,-761.2 349.5,-739.2 166.5,-739.2"/>
<text text-anchor="start" x="186.5" y="-746.3" font-family="Helvetica,sans-Serif" font-size="11.00" fill="#000000">detail_title</text>
<polygon fill="none" stroke="#000000" points="166.5,-717.2 166.5,-739.2 349.5,-739.2 349.5,-717.2 166.5,-717.2"/>
<text text-anchor="start" x="186.5" y="-724.3" font-family="Helvetica,sans-Serif" font-size="11.00" fill="#000000">detail</text>
<polygon fill="none" stroke="#000000" points="166.5,-695.2 166.5,-717.2 349.5,-717.2 349.5,-695.2 166.5,-695.2"/>
<text text-anchor="start" x="186.5" y="-702.3" font-family="Helvetica,sans-Serif" font-size="11.00" fill="#000000">information</text>
<polygon fill="none" stroke="#000000" points="166.5,-673.2 166.5,-695.2 349.5,-695.2 349.5,-673.2 166.5,-673.2"/>
<text text-anchor="start" x="186.5" y="-680.3" font-family="Helvetica,sans-Serif" font-size="11.00" fill="#000000">item_no</text>
<polygon fill="none" stroke="#000000" points="166.5,-651.2 166.5,-673.2 349.5,-673.2 349.5,-651.2 166.5,-651.2"/>
<text text-anchor="start" x="186.5" y="-658.3" font-family="Helvetica,sans-Serif" font-size="11.00" fill="#000000">model_no</text>
<polygon fill="none" stroke="#000000" points="166.5,-629.2 166.5,-651.2 349.5,-651.2 349.5,-629.2 166.5,-629.2"/>
<text text-anchor="start" x="186.5" y="-636.3" font-family="Helvetica,sans-Serif" font-size="11.00" fill="#000000">is_maker_request_price</text>
<polygon fill="none" stroke="#000000" points="166.5,-607.2 166.5,-629.2 349.5,-629.2 349.5,-607.2 166.5,-607.2"/>
<text text-anchor="start" x="186.5" y="-614.3" font-family="Helvetica,sans-Serif" font-size="11.00" fill="#000000">open_price</text>
<polygon fill="none" stroke="#000000" points="166.5,-585.2 166.5,-607.2 349.5,-607.2 349.5,-585.2 166.5,-585.2"/>
<text text-anchor="start" x="186.5" y="-592.3" font-family="Helvetica,sans-Serif" font-size="11.00" fill="#000000">normal_price</text>
<polygon fill="none" stroke="#000000" points="166.5,-563.2 166.5,-585.2 349.5,-585.2 349.5,-563.2 166.5,-563.2"/>
<text text-anchor="start" x="186.5" y="-570.3" font-family="Helvetica,sans-Serif" font-size="11.00" fill="#000000">tax</text>
<polygon fill="none" stroke="#000000" points="166.5,-541.2 166.5,-563.2 349.5,-563.2 349.5,-541.2 166.5,-541.2"/>
<text text-anchor="start" x="186.5" y="-548.3" font-family="Helvetica,sans-Serif" font-size="11.00" fill="#000000">start_datetime</text>
<polygon fill="none" stroke="#000000" points="166.5,-519.2 166.5,-541.2 349.5,-541.2 349.5,-519.2 166.5,-519.2"/>
<text text-anchor="start" x="186.5" y="-526.3" font-family="Helvetica,sans-Serif" font-size="11.00" fill="#000000">end_datetime</text>
<polygon fill="none" stroke="#000000" points="166.5,-497.2 166.5,-519.2 349.5,-519.2 349.5,-497.2 166.5,-497.2"/>
<text text-anchor="start" x="186.5" y="-504.3" font-family="Helvetica,sans-Serif" font-size="11.00" fill="#000000">can_reserve</text>
<polygon fill="none" stroke="#000000" points="166.5,-475.2 166.5,-497.2 349.5,-497.2 349.5,-475.2 166.5,-475.2"/>
<text text-anchor="start" x="186.5" y="-482.3" font-family="Helvetica,sans-Serif" font-size="11.00" fill="#000000">reserve_start_datetime</text>
<polygon fill="none" stroke="#000000" points="166.5,-453.2 166.5,-475.2 349.5,-475.2 349.5,-453.2 166.5,-453.2"/>
<text text-anchor="start" x="186.5" y="-460.3" font-family="Helvetica,sans-Serif" font-size="11.00" fill="#000000">is_postage_free</text>
<polygon fill="none" stroke="#000000" points="166.5,-431.2 166.5,-453.2 349.5,-453.2 349.5,-431.2 166.5,-431.2"/>
<text text-anchor="start" x="186.5" y="-438.3" font-family="Helvetica,sans-Serif" font-size="11.00" fill="#000000">delivery_type_id</text>
<polygon fill="none" stroke="#000000" points="166.5,-409.2 166.5,-431.2 349.5,-431.2 349.5,-409.2 166.5,-409.2"/>
<text text-anchor="start" x="186.5" y="-416.3" font-family="Helvetica,sans-Serif" font-size="11.00" fill="#000000">item_size_id</text>
<polygon fill="none" stroke="#000000" points="166.5,-387.2 166.5,-409.2 349.5,-409.2 349.5,-387.2 166.5,-387.2"/>
<text text-anchor="start" x="186.5" y="-394.3" font-family="Helvetica,sans-Serif" font-size="11.00" fill="#000000">is_consolidate_exclude</text>
<polygon fill="none" stroke="#000000" points="166.5,-365.2 166.5,-387.2 349.5,-387.2 349.5,-365.2 166.5,-365.2"/>
<text text-anchor="start" x="186.5" y="-372.3" font-family="Helvetica,sans-Serif" font-size="11.00" fill="#000000">is_purchase_limit</text>
<polygon fill="none" stroke="#000000" points="166.5,-343.2 166.5,-365.2 349.5,-365.2 349.5,-343.2 166.5,-343.2"/>
<text text-anchor="start" x="186.5" y="-350.3" font-family="Helvetica,sans-Serif" font-size="11.00" fill="#000000">purchase_limit_condition_id</text>
<polygon fill="none" stroke="#000000" points="166.5,-321.2 166.5,-343.2 349.5,-343.2 349.5,-321.2 166.5,-321.2"/>
<text text-anchor="start" x="186.5" y="-328.3" font-family="Helvetica,sans-Serif" font-size="11.00" fill="#000000">purchase_limit</text>
<polygon fill="none" stroke="#000000" points="166.5,-299.2 166.5,-321.2 349.5,-321.2 349.5,-299.2 166.5,-299.2"/>
<text text-anchor="start" x="186.5" y="-306.3" font-family="Helvetica,sans-Serif" font-size="11.00" fill="#000000">has_youtube</text>
<polygon fill="none" stroke="#000000" points="166.5,-277.2 166.5,-299.2 349.5,-299.2 349.5,-277.2 166.5,-277.2"/>
<text text-anchor="start" x="186.5" y="-284.3" font-family="Helvetica,sans-Serif" font-size="11.00" fill="#000000">youtube_tag</text>
<polygon fill="none" stroke="#000000" points="166.5,-255.2 166.5,-277.2 349.5,-277.2 349.5,-255.2 166.5,-255.2"/>
<text text-anchor="start" x="186.5" y="-262.3" font-family="Helvetica,sans-Serif" font-size="11.00" fill="#000000">has_color</text>
<polygon fill="none" stroke="#000000" points="166.5,-233.2 166.5,-255.2 349.5,-255.2 349.5,-233.2 166.5,-233.2"/>
<text text-anchor="start" x="186.5" y="-240.3" font-family="Helvetica,sans-Serif" font-size="11.00" fill="#000000">has_size</text>
<polygon fill="none" stroke="#000000" points="166.5,-211.2 166.5,-233.2 349.5,-233.2 349.5,-211.2 166.5,-211.2"/>
<text text-anchor="start" x="186.5" y="-218.3" font-family="Helvetica,sans-Serif" font-size="11.00" fill="#000000">has_option</text>
<polygon fill="none" stroke="#000000" points="166.5,-189.2 166.5,-211.2 349.5,-211.2 349.5,-189.2 166.5,-189.2"/>
<text text-anchor="start" x="186.5" y="-196.3" font-family="Helvetica,sans-Serif" font-size="11.00" fill="#000000">has_check</text>
<polygon fill="none" stroke="#000000" points="166.5,-167.2 166.5,-189.2 349.5,-189.2 349.5,-167.2 166.5,-167.2"/>
<text text-anchor="start" x="186.5" y="-174.3" font-family="Helvetica,sans-Serif" font-size="11.00" fill="#000000">one_stories_url</text>
<polygon fill="none" stroke="#000000" points="166.5,-145.2 166.5,-167.2 349.5,-167.2 349.5,-145.2 166.5,-145.2"/>
<text text-anchor="start" x="186.5" y="-152.3" font-family="Helvetica,sans-Serif" font-size="11.00" fill="#000000">filter_color_id</text>
<polygon fill="none" stroke="#000000" points="166.5,-123.2 166.5,-145.2 349.5,-145.2 349.5,-123.2 166.5,-123.2"/>
<text text-anchor="start" x="186.5" y="-130.3" font-family="Helvetica,sans-Serif" font-size="11.00" fill="#000000">filter_tag_id</text>
<polygon fill="none" stroke="#000000" points="166.5,-101.2 166.5,-123.2 349.5,-123.2 349.5,-101.2 166.5,-101.2"/>
<text text-anchor="start" x="186.5" y="-108.3" font-family="Helvetica,sans-Serif" font-size="11.00" fill="#000000">created_at</text>
<polygon fill="none" stroke="#000000" points="166.5,-79.2 166.5,-101.2 349.5,-101.2 349.5,-79.2 166.5,-79.2"/>
<text text-anchor="start" x="186.5" y="-86.3" font-family="Helvetica,sans-Serif" font-size="11.00" fill="#000000">updated_at</text>
<polygon fill="none" stroke="#000000" points="166.5,-57.2 166.5,-79.2 349.5,-79.2 349.5,-57.2 166.5,-57.2"/>
<text text-anchor="start" x="186.5" y="-64.3" font-family="Helvetica,sans-Serif" font-size="11.00" fill="#000000">deleted_at</text>
<polygon fill="#ffffff" stroke="transparent" points="166.5,-38.2 166.5,-57.2 243.5,-57.2 243.5,-38.2 166.5,-38.2"/>
<polygon fill="none" stroke="#000000" points="166.5,-38.2 166.5,-57.2 243.5,-57.2 243.5,-38.2 166.5,-38.2"/>
<text text-anchor="start" x="169.5" y="-44.3" font-family="Helvetica,sans-Serif" font-size="11.00" fill="#000000">&lt; 1</text>
<polygon fill="#ffffff" stroke="transparent" points="243.5,-38.2 243.5,-57.2 309.5,-57.2 309.5,-38.2 243.5,-38.2"/>
<polygon fill="none" stroke="#000000" points="243.5,-38.2 243.5,-57.2 309.5,-57.2 309.5,-38.2 243.5,-38.2"/>
<text text-anchor="start" x="274.1105" y="-44.3" font-family="Helvetica,sans-Serif" font-size="11.00" fill="#000000">0 rows</text>
<polygon fill="#ffffff" stroke="transparent" points="309.5,-38.2 309.5,-57.2 349.5,-57.2 349.5,-38.2 309.5,-38.2"/>
<polygon fill="none" stroke="#000000" points="309.5,-38.2 309.5,-57.2 349.5,-57.2 349.5,-38.2 309.5,-38.2"/>
<text text-anchor="start" x="340.3862" y="-44.3" font-family="Helvetica,sans-Serif" font-size="11.00" fill="#000000"> &#160;</text>
</a>
</g>
</g>
<!-- items&#45;&gt;categories -->
<g id="edge1" class="edge">
<title>items:w&#45;&gt;categories:e</title>
<path fill="none" stroke="#000000" d="M151.9909,-816.2C140.6774,-816.2 133.4931,-816.2 117.5,-816.2"/>
<polygon fill="#000000" stroke="#000000" points="158.5,-816.2001 166.5,-819.8 162.5,-816.2 166.5,-816.2 166.5,-816.2 166.5,-816.2 162.5,-816.2 166.5,-812.6 158.5,-816.2001 158.5,-816.2001"/>
<ellipse fill="none" stroke="#000000" cx="155.3" cy="-816.2001" rx="3.2" ry="3.2"/>
</g>
</g>
</svg>
