<?xml version="1.0" encoding="UTF-8" standalone="no"?>
<!DOCTYPE svg PUBLIC "-//W3C//DTD SVG 1.1//EN"
 "http://www.w3.org/Graphics/SVG/1.1/DTD/svg11.dtd">
<!-- Generated by graphviz version 2.40.1 (20161225.0304)
 -->
<!-- Title: admins Pages: 1 -->
<svg width="244pt" height="260pt"
 viewBox="0.00 0.00 244.00 260.00" xmlns="http://www.w3.org/2000/svg" xmlns:xlink="http://www.w3.org/1999/xlink">
<g id="graph0" class="graph" transform="scale(1 1) rotate(0) translate(4 256)">
<title>admins</title>
<polygon fill="#ffffff" stroke="transparent" points="-4,4 -4,-256 240,-256 240,4 -4,4"/>
<!-- admins -->
<g id="node1" class="node">
<title>admins</title>
<g id="a_node1"><a xlink:href="../../tables/admins.html" xlink:title="admins" target="_top">
<polygon fill="#ffffff" stroke="transparent" points="8,-4 8,-248 228,-248 228,-4 8,-4"/>
<polygon fill="#f5f5f5" stroke="transparent" points="10,-223 10,-246 226,-246 226,-223 10,-223"/>
<polygon fill="none" stroke="#000000" points="10,-223 10,-246 226,-246 226,-223 10,-223"/>
<text text-anchor="start" x="15" y="-232.1" font-family="Helvetica,sans-Serif" font-weight="bold" font-size="11.00" fill="#000000">admins</text>
<text text-anchor="start" x="191.0437" y="-231.1" font-family="Helvetica,sans-Serif" font-size="11.00" fill="#000000">[table]</text>
<polygon fill="none" stroke="#000000" points="10,-201 10,-223 128,-223 128,-201 10,-201"/>
<image xlink:href="../../images/primaryKeys.png" width="11px" height="12px" preserveAspectRatio="xMinYMin meet" x="15" y="-218"/>
<text text-anchor="start" x="30" y="-208.1" font-family="Helvetica,sans-Serif" font-size="11.00" fill="#000000">id</text>
<polygon fill="none" stroke="#000000" points="128,-201 128,-223 226,-223 226,-201 128,-201"/>
<text text-anchor="start" x="130.8429" y="-208.7" font-family="Helvetica,sans-Serif" font-size="11.00" fill="#000000">bigint unsigned[20]</text>
<polygon fill="none" stroke="#000000" points="10,-179 10,-201 128,-201 128,-179 10,-179"/>
<text text-anchor="start" x="30" y="-186.1" font-family="Helvetica,sans-Serif" font-size="11.00" fill="#000000">name</text>
<polygon fill="none" stroke="#000000" points="128,-179 128,-201 226,-201 226,-179 128,-179"/>
<text text-anchor="start" x="131" y="-186.7" font-family="Helvetica,sans-Serif" font-size="11.00" fill="#000000">varchar[255]</text>
<polygon fill="#ffffff" stroke="transparent" points="10,-157 10,-179 128,-179 128,-157 10,-157"/>
<polygon fill="none" stroke="#000000" points="10,-157 10,-179 128,-179 128,-157 10,-157"/>
<text text-anchor="start" x="30" y="-164.1" font-family="Helvetica,sans-Serif" font-size="11.00" fill="#000000">email</text>
<polygon fill="none" stroke="#000000" points="128,-157 128,-179 226,-179 226,-157 128,-157"/>
<text text-anchor="start" x="131" y="-164.7" font-family="Helvetica,sans-Serif" font-size="11.00" fill="#000000">varchar[255]</text>
<polygon fill="none" stroke="#000000" points="10,-135 10,-157 128,-157 128,-135 10,-135"/>
<text text-anchor="start" x="30" y="-142.1" font-family="Helvetica,sans-Serif" font-size="11.00" fill="#000000">email_verified_at</text>
<polygon fill="none" stroke="#000000" points="128,-135 128,-157 226,-157 226,-135 128,-135"/>
<text text-anchor="start" x="131" y="-142.7" font-family="Helvetica,sans-Serif" font-size="11.00" fill="#000000">timestamp[19]</text>
<polygon fill="none" stroke="#000000" points="10,-113 10,-135 128,-135 128,-113 10,-113"/>
<text text-anchor="start" x="30" y="-120.1" font-family="Helvetica,sans-Serif" font-size="11.00" fill="#000000">access_token</text>
<polygon fill="none" stroke="#000000" points="128,-113 128,-135 226,-135 226,-113 128,-113"/>
<text text-anchor="start" x="131" y="-120.7" font-family="Helvetica,sans-Serif" font-size="11.00" fill="#000000">varchar[255]</text>
<polygon fill="none" stroke="#000000" points="10,-91 10,-113 128,-113 128,-91 10,-91"/>
<text text-anchor="start" x="30" y="-98.1" font-family="Helvetica,sans-Serif" font-size="11.00" fill="#000000">remember_token</text>
<polygon fill="none" stroke="#000000" points="128,-91 128,-113 226,-113 226,-91 128,-91"/>
<text text-anchor="start" x="131" y="-98.7" font-family="Helvetica,sans-Serif" font-size="11.00" fill="#000000">varchar[255]</text>
<polygon fill="none" stroke="#000000" points="10,-69 10,-91 128,-91 128,-69 10,-69"/>
<text text-anchor="start" x="30" y="-76.1" font-family="Helvetica,sans-Serif" font-size="11.00" fill="#000000">created_at</text>
<polygon fill="none" stroke="#000000" points="128,-69 128,-91 226,-91 226,-69 128,-69"/>
<text text-anchor="start" x="131" y="-76.7" font-family="Helvetica,sans-Serif" font-size="11.00" fill="#000000">timestamp[19]</text>
<polygon fill="none" stroke="#000000" points="10,-47 10,-69 128,-69 128,-47 10,-47"/>
<text text-anchor="start" x="30" y="-54.1" font-family="Helvetica,sans-Serif" font-size="11.00" fill="#000000">updated_at</text>
<polygon fill="none" stroke="#000000" points="128,-47 128,-69 226,-69 226,-47 128,-47"/>
<text text-anchor="start" x="131" y="-54.7" font-family="Helvetica,sans-Serif" font-size="11.00" fill="#000000">timestamp[19]</text>
<polygon fill="none" stroke="#000000" points="10,-25 10,-47 128,-47 128,-25 10,-25"/>
<text text-anchor="start" x="30" y="-32.1" font-family="Helvetica,sans-Serif" font-size="11.00" fill="#000000">deleted_at</text>
<polygon fill="none" stroke="#000000" points="128,-25 128,-47 226,-47 226,-25 128,-25"/>
<text text-anchor="start" x="131" y="-32.7" font-family="Helvetica,sans-Serif" font-size="11.00" fill="#000000">timestamp[19]</text>
<polygon fill="#ffffff" stroke="transparent" points="10,-6 10,-25 60,-25 60,-6 10,-6"/>
<polygon fill="none" stroke="#000000" points="10,-6 10,-25 60,-25 60,-6 10,-6"/>
<text text-anchor="start" x="13" y="-12.1" font-family="Helvetica,sans-Serif" font-size="11.00" fill="#000000">&lt; 0</text>
<polygon fill="#ffffff" stroke="transparent" points="60,-6 60,-25 128,-25 128,-6 60,-6"/>
<polygon fill="none" stroke="#000000" points="60,-6 60,-25 128,-25 128,-6 60,-6"/>
<text text-anchor="start" x="92.6105" y="-12.1" font-family="Helvetica,sans-Serif" font-size="11.00" fill="#000000">0 rows</text>
<polygon fill="#ffffff" stroke="transparent" points="128,-6 128,-25 226,-25 226,-6 128,-6"/>
<polygon fill="none" stroke="#000000" points="128,-6 128,-25 226,-25 226,-6 128,-6"/>
<text text-anchor="start" x="207.4053" y="-12.1" font-family="Helvetica,sans-Serif" font-size="11.00" fill="#000000">0 &gt;</text>
<polygon fill="none" stroke="#000000" stroke-width="2" points="9,-5 9,-247 227,-247 227,-5 9,-5"/>
</a>
</g>
</g>
</g>
</svg>
