<?xml version="1.0" encoding="UTF-8" standalone="no"?>
<!DOCTYPE svg PUBLIC "-//W3C//DTD SVG 1.1//EN"
 "http://www.w3.org/Graphics/SVG/1.1/DTD/svg11.dtd">
<!-- Generated by graphviz version 2.40.1 (20161225.0304)
 -->
<!-- Title: delivery_type Pages: 1 -->
<svg width="246pt" height="106pt"
 viewBox="0.00 0.00 246.00 106.00" xmlns="http://www.w3.org/2000/svg" xmlns:xlink="http://www.w3.org/1999/xlink">
<g id="graph0" class="graph" transform="scale(1 1) rotate(0) translate(4 102)">
<title>delivery_type</title>
<polygon fill="#ffffff" stroke="transparent" points="-4,4 -4,-102 242,-102 242,4 -4,4"/>
<!-- delivery_type -->
<g id="node1" class="node">
<title>delivery_type</title>
<g id="a_node1"><a xlink:href="../../tables/delivery_type.html" xlink:title="delivery_type" target="_top">
<polygon fill="#ffffff" stroke="transparent" points="8,-4 8,-94 230,-94 230,-4 8,-4"/>
<polygon fill="#f5f5f5" stroke="transparent" points="10,-69 10,-92 228,-92 228,-69 10,-69"/>
<polygon fill="none" stroke="#000000" points="10,-69 10,-92 228,-92 228,-69 10,-69"/>
<text text-anchor="start" x="15" y="-78.1" font-family="Helvetica,sans-Serif" font-weight="bold" font-size="11.00" fill="#000000">delivery_type</text>
<text text-anchor="start" x="193.0437" y="-77.1" font-family="Helvetica,sans-Serif" font-size="11.00" fill="#000000">[table]</text>
<polygon fill="none" stroke="#000000" points="10,-47 10,-69 145,-69 145,-47 10,-47"/>
<image xlink:href="../../images/primaryKeys.png" width="11px" height="12px" preserveAspectRatio="xMinYMin meet" x="15" y="-64"/>
<text text-anchor="start" x="30" y="-54.1" font-family="Helvetica,sans-Serif" font-size="11.00" fill="#000000">id</text>
<polygon fill="none" stroke="#000000" points="145,-47 145,-69 228,-69 228,-47 145,-47"/>
<text text-anchor="start" x="147.6783" y="-54.7" font-family="Helvetica,sans-Serif" font-size="11.00" fill="#000000">int unsigned[10]</text>
<polygon fill="none" stroke="#000000" points="10,-25 10,-47 145,-47 145,-25 10,-25"/>
<text text-anchor="start" x="30" y="-32.1" font-family="Helvetica,sans-Serif" font-size="11.00" fill="#000000">delivery_type_name</text>
<polygon fill="none" stroke="#000000" points="145,-25 145,-47 228,-47 228,-25 145,-25"/>
<text text-anchor="start" x="148" y="-32.7" font-family="Helvetica,sans-Serif" font-size="11.00" fill="#000000">varchar[100]</text>
<polygon fill="#ffffff" stroke="transparent" points="10,-6 10,-25 69,-25 69,-6 10,-6"/>
<polygon fill="none" stroke="#000000" points="10,-6 10,-25 69,-25 69,-6 10,-6"/>
<text text-anchor="start" x="13" y="-12.1" font-family="Helvetica,sans-Serif" font-size="11.00" fill="#000000">&lt; 0</text>
<polygon fill="#ffffff" stroke="transparent" points="69,-6 69,-25 145,-25 145,-6 69,-6"/>
<polygon fill="none" stroke="#000000" points="69,-6 69,-25 145,-25 145,-6 69,-6"/>
<text text-anchor="start" x="109.6105" y="-12.1" font-family="Helvetica,sans-Serif" font-size="11.00" fill="#000000">2 rows</text>
<polygon fill="#ffffff" stroke="transparent" points="145,-6 145,-25 228,-25 228,-6 145,-6"/>
<polygon fill="none" stroke="#000000" points="145,-6 145,-25 228,-25 228,-6 145,-6"/>
<text text-anchor="start" x="209.4053" y="-12.1" font-family="Helvetica,sans-Serif" font-size="11.00" fill="#000000">0 &gt;</text>
<polygon fill="none" stroke="#000000" stroke-width="2" points="9,-5 9,-93 229,-93 229,-5 9,-5"/>
</a>
</g>
</g>
</g>
</svg>
