<?xml version="1.0" encoding="UTF-8" standalone="no"?>
<!DOCTYPE svg PUBLIC "-//W3C//DTD SVG 1.1//EN"
 "http://www.w3.org/Graphics/SVG/1.1/DTD/svg11.dtd">
<!-- Generated by graphviz version 2.40.1 (20161225.0304)
 -->
<!-- Title: failed_jobs Pages: 1 -->
<svg width="224pt" height="216pt"
 viewBox="0.00 0.00 224.00 216.00" xmlns="http://www.w3.org/2000/svg" xmlns:xlink="http://www.w3.org/1999/xlink">
<g id="graph0" class="graph" transform="scale(1 1) rotate(0) translate(4 212)">
<title>failed_jobs</title>
<polygon fill="#ffffff" stroke="transparent" points="-4,4 -4,-212 220,-212 220,4 -4,4"/>
<!-- failed_jobs -->
<g id="node1" class="node">
<title>failed_jobs</title>
<g id="a_node1"><a xlink:href="../../tables/failed_jobs.html" xlink:title="failed_jobs" target="_top">
<polygon fill="#ffffff" stroke="transparent" points="8,-4 8,-204 208,-204 208,-4 8,-4"/>
<polygon fill="#f5f5f5" stroke="transparent" points="10,-179 10,-202 206,-202 206,-179 10,-179"/>
<polygon fill="none" stroke="#000000" points="10,-179 10,-202 206,-202 206,-179 10,-179"/>
<text text-anchor="start" x="15" y="-188.1" font-family="Helvetica,sans-Serif" font-weight="bold" font-size="11.00" fill="#000000">failed_jobs</text>
<text text-anchor="start" x="171.0437" y="-187.1" font-family="Helvetica,sans-Serif" font-size="11.00" fill="#000000">[table]</text>
<polygon fill="none" stroke="#000000" points="10,-157 10,-179 95,-179 95,-157 10,-157"/>
<image xlink:href="../../images/primaryKeys.png" width="11px" height="12px" preserveAspectRatio="xMinYMin meet" x="15" y="-174"/>
<text text-anchor="start" x="30" y="-164.1" font-family="Helvetica,sans-Serif" font-size="11.00" fill="#000000">id</text>
<polygon fill="none" stroke="#000000" points="95,-157 95,-179 206,-179 206,-157 95,-157"/>
<text text-anchor="start" x="98" y="-164.7" font-family="Helvetica,sans-Serif" font-size="11.00" fill="#000000">bigint unsigned[20]</text>
<polygon fill="#ffffff" stroke="transparent" points="10,-135 10,-157 95,-157 95,-135 10,-135"/>
<polygon fill="none" stroke="#000000" points="10,-135 10,-157 95,-157 95,-135 10,-135"/>
<text text-anchor="start" x="30" y="-142.1" font-family="Helvetica,sans-Serif" font-size="11.00" fill="#000000">uuid</text>
<polygon fill="none" stroke="#000000" points="95,-135 95,-157 206,-157 206,-135 95,-135"/>
<text text-anchor="start" x="98" y="-142.7" font-family="Helvetica,sans-Serif" font-size="11.00" fill="#000000">varchar[255]</text>
<polygon fill="none" stroke="#000000" points="10,-113 10,-135 95,-135 95,-113 10,-113"/>
<text text-anchor="start" x="30" y="-120.1" font-family="Helvetica,sans-Serif" font-size="11.00" fill="#000000">connection</text>
<polygon fill="none" stroke="#000000" points="95,-113 95,-135 206,-135 206,-113 95,-113"/>
<text text-anchor="start" x="98" y="-120.7" font-family="Helvetica,sans-Serif" font-size="11.00" fill="#000000">text[65535]</text>
<polygon fill="none" stroke="#000000" points="10,-91 10,-113 95,-113 95,-91 10,-91"/>
<text text-anchor="start" x="30" y="-98.1" font-family="Helvetica,sans-Serif" font-size="11.00" fill="#000000">queue</text>
<polygon fill="none" stroke="#000000" points="95,-91 95,-113 206,-113 206,-91 95,-91"/>
<text text-anchor="start" x="98" y="-98.7" font-family="Helvetica,sans-Serif" font-size="11.00" fill="#000000">text[65535]</text>
<polygon fill="none" stroke="#000000" points="10,-69 10,-91 95,-91 95,-69 10,-69"/>
<text text-anchor="start" x="30" y="-76.1" font-family="Helvetica,sans-Serif" font-size="11.00" fill="#000000">payload</text>
<polygon fill="none" stroke="#000000" points="95,-69 95,-91 206,-91 206,-69 95,-69"/>
<text text-anchor="start" x="97.6115" y="-76.7" font-family="Helvetica,sans-Serif" font-size="11.00" fill="#000000">longtext[2147483647]</text>
<polygon fill="none" stroke="#000000" points="10,-47 10,-69 95,-69 95,-47 10,-47"/>
<text text-anchor="start" x="30" y="-54.1" font-family="Helvetica,sans-Serif" font-size="11.00" fill="#000000">exception</text>
<polygon fill="none" stroke="#000000" points="95,-47 95,-69 206,-69 206,-47 95,-47"/>
<text text-anchor="start" x="97.6115" y="-54.7" font-family="Helvetica,sans-Serif" font-size="11.00" fill="#000000">longtext[2147483647]</text>
<polygon fill="none" stroke="#000000" points="10,-25 10,-47 95,-47 95,-25 10,-25"/>
<text text-anchor="start" x="30" y="-32.1" font-family="Helvetica,sans-Serif" font-size="11.00" fill="#000000">failed_at</text>
<polygon fill="none" stroke="#000000" points="95,-25 95,-47 206,-47 206,-25 95,-25"/>
<text text-anchor="start" x="98" y="-32.7" font-family="Helvetica,sans-Serif" font-size="11.00" fill="#000000">timestamp[19]</text>
<polygon fill="#ffffff" stroke="transparent" points="10,-6 10,-25 44,-25 44,-6 10,-6"/>
<polygon fill="none" stroke="#000000" points="10,-6 10,-25 44,-25 44,-6 10,-6"/>
<text text-anchor="start" x="13" y="-12.1" font-family="Helvetica,sans-Serif" font-size="11.00" fill="#000000">&lt; 0</text>
<polygon fill="#ffffff" stroke="transparent" points="44,-6 44,-25 95,-25 95,-6 44,-6"/>
<polygon fill="none" stroke="#000000" points="44,-6 44,-25 95,-25 95,-6 44,-6"/>
<text text-anchor="start" x="59.6105" y="-12.1" font-family="Helvetica,sans-Serif" font-size="11.00" fill="#000000">0 rows</text>
<polygon fill="#ffffff" stroke="transparent" points="95,-6 95,-25 206,-25 206,-6 95,-6"/>
<polygon fill="none" stroke="#000000" points="95,-6 95,-25 206,-25 206,-6 95,-6"/>
<text text-anchor="start" x="187.4053" y="-12.1" font-family="Helvetica,sans-Serif" font-size="11.00" fill="#000000">0 &gt;</text>
<polygon fill="none" stroke="#000000" stroke-width="2" points="9,-5 9,-203 207,-203 207,-5 9,-5"/>
</a>
</g>
</g>
</g>
</svg>
