<?xml version="1.0" encoding="UTF-8" standalone="no"?>
<!DOCTYPE svg PUBLIC "-//W3C//DTD SVG 1.1//EN"
 "http://www.w3.org/Graphics/SVG/1.1/DTD/svg11.dtd">
<!-- Generated by graphviz version 2.40.1 (20161225.0304)
 -->
<!-- Title: item_variation_sizes Pages: 1 -->
<svg width="249pt" height="84pt"
 viewBox="0.00 0.00 249.00 84.00" xmlns="http://www.w3.org/2000/svg" xmlns:xlink="http://www.w3.org/1999/xlink">
<g id="graph0" class="graph" transform="scale(1 1) rotate(0) translate(4 80)">
<title>item_variation_sizes</title>
<polygon fill="#ffffff" stroke="transparent" points="-4,4 -4,-80 245,-80 245,4 -4,4"/>
<!-- item_variation_sizes -->
<g id="node1" class="node">
<title>item_variation_sizes</title>
<g id="a_node1"><a xlink:href="../../tables/item_variation_sizes.html" xlink:title="item_variation_sizes" target="_top">
<polygon fill="#ffffff" stroke="transparent" points="8,-4 8,-72 233,-72 233,-4 8,-4"/>
<polygon fill="#f5f5f5" stroke="transparent" points="10.5,-47 10.5,-70 231.5,-70 231.5,-47 10.5,-47"/>
<polygon fill="none" stroke="#000000" points="10.5,-47 10.5,-70 231.5,-70 231.5,-47 10.5,-47"/>
<text text-anchor="start" x="15.5" y="-56.1" font-family="Helvetica,sans-Serif" font-weight="bold" font-size="11.00" fill="#000000">item_variation_sizes</text>
<text text-anchor="start" x="196.5437" y="-55.1" font-family="Helvetica,sans-Serif" font-size="11.00" fill="#000000">[table]</text>
<polygon fill="none" stroke="#000000" points="10.5,-25 10.5,-47 148.5,-47 148.5,-25 10.5,-25"/>
<image xlink:href="../../images/primaryKeys.png" width="11px" height="12px" preserveAspectRatio="xMinYMin meet" x="15.5" y="-42"/>
<text text-anchor="start" x="30.5" y="-32.1" font-family="Helvetica,sans-Serif" font-size="11.00" fill="#000000">id</text>
<polygon fill="none" stroke="#000000" points="148.5,-25 148.5,-47 231.5,-47 231.5,-25 148.5,-25"/>
<text text-anchor="start" x="151.1783" y="-32.7" font-family="Helvetica,sans-Serif" font-size="11.00" fill="#000000">int unsigned[10]</text>
<polygon fill="#ffffff" stroke="transparent" points="10.5,-6 10.5,-25 70.5,-25 70.5,-6 10.5,-6"/>
<polygon fill="none" stroke="#000000" points="10.5,-6 10.5,-25 70.5,-25 70.5,-6 10.5,-6"/>
<text text-anchor="start" x="13.5" y="-12.1" font-family="Helvetica,sans-Serif" font-size="11.00" fill="#000000">&lt; 0</text>
<polygon fill="#ffffff" stroke="transparent" points="70.5,-6 70.5,-25 148.5,-25 148.5,-6 70.5,-6"/>
<polygon fill="none" stroke="#000000" points="70.5,-6 70.5,-25 148.5,-25 148.5,-6 70.5,-6"/>
<text text-anchor="start" x="113.1105" y="-12.1" font-family="Helvetica,sans-Serif" font-size="11.00" fill="#000000">0 rows</text>
<polygon fill="#ffffff" stroke="transparent" points="148.5,-6 148.5,-25 231.5,-25 231.5,-6 148.5,-6"/>
<polygon fill="none" stroke="#000000" points="148.5,-6 148.5,-25 231.5,-25 231.5,-6 148.5,-6"/>
<text text-anchor="start" x="212.9053" y="-12.1" font-family="Helvetica,sans-Serif" font-size="11.00" fill="#000000">0 &gt;</text>
<polygon fill="none" stroke="#000000" stroke-width="2" points="9,-5 9,-71 232,-71 232,-5 9,-5"/>
</a>
</g>
</g>
</g>
</svg>
