<?xml version="1.0" encoding="UTF-8" standalone="no"?>
<!DOCTYPE svg PUBLIC "-//W3C//DTD SVG 1.1//EN"
 "http://www.w3.org/Graphics/SVG/1.1/DTD/svg11.dtd">
<!-- Generated by graphviz version 2.40.1 (20161225.0304)
 -->
<!-- Title: item_options Pages: 1 -->
<svg width="219pt" height="172pt"
 viewBox="0.00 0.00 219.00 172.00" xmlns="http://www.w3.org/2000/svg" xmlns:xlink="http://www.w3.org/1999/xlink">
<g id="graph0" class="graph" transform="scale(1 1) rotate(0) translate(4 168)">
<title>item_options</title>
<polygon fill="#ffffff" stroke="transparent" points="-4,4 -4,-168 215,-168 215,4 -4,4"/>
<!-- item_options -->
<g id="node1" class="node">
<title>item_options</title>
<g id="a_node1"><a xlink:href="../../tables/item_options.html" xlink:title="item_options" target="_top">
<polygon fill="#ffffff" stroke="transparent" points="8,-4 8,-160 203,-160 203,-4 8,-4"/>
<polygon fill="#f5f5f5" stroke="transparent" points="10.5,-135 10.5,-158 201.5,-158 201.5,-135 10.5,-135"/>
<polygon fill="none" stroke="#000000" points="10.5,-135 10.5,-158 201.5,-158 201.5,-135 10.5,-135"/>
<text text-anchor="start" x="15.5" y="-144.1" font-family="Helvetica,sans-Serif" font-weight="bold" font-size="11.00" fill="#000000">item_options</text>
<text text-anchor="start" x="166.5437" y="-143.1" font-family="Helvetica,sans-Serif" font-size="11.00" fill="#000000">[table]</text>
<polygon fill="none" stroke="#000000" points="10.5,-113 10.5,-135 118.5,-135 118.5,-113 10.5,-113"/>
<image xlink:href="../../images/primaryKeys.png" width="11px" height="12px" preserveAspectRatio="xMinYMin meet" x="15.5" y="-130"/>
<text text-anchor="start" x="30.5" y="-120.1" font-family="Helvetica,sans-Serif" font-size="11.00" fill="#000000">item_id</text>
<polygon fill="none" stroke="#000000" points="118.5,-113 118.5,-135 201.5,-135 201.5,-113 118.5,-113"/>
<text text-anchor="start" x="121.1783" y="-120.7" font-family="Helvetica,sans-Serif" font-size="11.00" fill="#000000">int unsigned[10]</text>
<polygon fill="none" stroke="#000000" points="10.5,-91 10.5,-113 118.5,-113 118.5,-91 10.5,-91"/>
<text text-anchor="start" x="30.5" y="-98.1" font-family="Helvetica,sans-Serif" font-size="11.00" fill="#000000">option_name</text>
<polygon fill="none" stroke="#000000" points="118.5,-91 118.5,-113 201.5,-113 201.5,-91 118.5,-91"/>
<text text-anchor="start" x="121.5" y="-98.7" font-family="Helvetica,sans-Serif" font-size="11.00" fill="#000000">varchar[200]</text>
<polygon fill="none" stroke="#000000" points="10.5,-69 10.5,-91 118.5,-91 118.5,-69 10.5,-69"/>
<text text-anchor="start" x="30.5" y="-76.1" font-family="Helvetica,sans-Serif" font-size="11.00" fill="#000000">type_name</text>
<polygon fill="none" stroke="#000000" points="118.5,-69 118.5,-91 201.5,-91 201.5,-69 118.5,-69"/>
<text text-anchor="start" x="121.5" y="-76.7" font-family="Helvetica,sans-Serif" font-size="11.00" fill="#000000">varchar[100]</text>
<polygon fill="none" stroke="#000000" points="10.5,-47 10.5,-69 118.5,-69 118.5,-47 10.5,-47"/>
<text text-anchor="start" x="30.5" y="-54.1" font-family="Helvetica,sans-Serif" font-size="11.00" fill="#000000">is_minus_price</text>
<polygon fill="none" stroke="#000000" points="118.5,-47 118.5,-69 201.5,-69 201.5,-47 118.5,-47"/>
<text text-anchor="start" x="121.5" y="-54.7" font-family="Helvetica,sans-Serif" font-size="11.00" fill="#000000">int[10]</text>
<polygon fill="none" stroke="#000000" points="10.5,-25 10.5,-47 118.5,-47 118.5,-25 10.5,-25"/>
<text text-anchor="start" x="30.5" y="-32.1" font-family="Helvetica,sans-Serif" font-size="11.00" fill="#000000">price</text>
<polygon fill="none" stroke="#000000" points="118.5,-25 118.5,-47 201.5,-47 201.5,-25 118.5,-25"/>
<text text-anchor="start" x="121.5" y="-32.7" font-family="Helvetica,sans-Serif" font-size="11.00" fill="#000000">int[10]</text>
<polygon fill="#ffffff" stroke="transparent" points="10.5,-6 10.5,-25 55.5,-25 55.5,-6 10.5,-6"/>
<polygon fill="none" stroke="#000000" points="10.5,-6 10.5,-25 55.5,-25 55.5,-6 10.5,-6"/>
<text text-anchor="start" x="13.5" y="-12.1" font-family="Helvetica,sans-Serif" font-size="11.00" fill="#000000">&lt; 0</text>
<polygon fill="#ffffff" stroke="transparent" points="55.5,-6 55.5,-25 118.5,-25 118.5,-6 55.5,-6"/>
<polygon fill="none" stroke="#000000" points="55.5,-6 55.5,-25 118.5,-25 118.5,-6 55.5,-6"/>
<text text-anchor="start" x="83.1105" y="-12.1" font-family="Helvetica,sans-Serif" font-size="11.00" fill="#000000">0 rows</text>
<polygon fill="#ffffff" stroke="transparent" points="118.5,-6 118.5,-25 201.5,-25 201.5,-6 118.5,-6"/>
<polygon fill="none" stroke="#000000" points="118.5,-6 118.5,-25 201.5,-25 201.5,-6 118.5,-6"/>
<text text-anchor="start" x="182.9053" y="-12.1" font-family="Helvetica,sans-Serif" font-size="11.00" fill="#000000">0 &gt;</text>
<polygon fill="none" stroke="#000000" stroke-width="2" points="9,-5 9,-159 202,-159 202,-5 9,-5"/>
</a>
</g>
</g>
</g>
</svg>
