<?xml version="1.0" encoding="UTF-8" standalone="no"?>
<!DOCTYPE svg PUBLIC "-//W3C//DTD SVG 1.1//EN"
 "http://www.w3.org/Graphics/SVG/1.1/DTD/svg11.dtd">
<!-- Generated by graphviz version 2.40.1 (20161225.0304)
 -->
<!-- Title: item_sizes Pages: 1 -->
<svg width="192pt" height="84pt"
 viewBox="0.00 0.00 192.00 84.00" xmlns="http://www.w3.org/2000/svg" xmlns:xlink="http://www.w3.org/1999/xlink">
<g id="graph0" class="graph" transform="scale(1 1) rotate(0) translate(4 80)">
<title>item_sizes</title>
<polygon fill="#ffffff" stroke="transparent" points="-4,4 -4,-80 188,-80 188,4 -4,4"/>
<!-- item_sizes -->
<g id="node1" class="node">
<title>item_sizes</title>
<g id="a_node1"><a xlink:href="../../tables/item_sizes.html" xlink:title="item_sizes" target="_top">
<polygon fill="#ffffff" stroke="transparent" points="8,-4 8,-72 176,-72 176,-4 8,-4"/>
<polygon fill="#f5f5f5" stroke="transparent" points="10,-47 10,-70 174,-70 174,-47 10,-47"/>
<polygon fill="none" stroke="#000000" points="10,-47 10,-70 174,-70 174,-47 10,-47"/>
<text text-anchor="start" x="15" y="-56.1" font-family="Helvetica,sans-Serif" font-weight="bold" font-size="11.00" fill="#000000">item_sizes</text>
<text text-anchor="start" x="139.0437" y="-55.1" font-family="Helvetica,sans-Serif" font-size="11.00" fill="#000000">[table]</text>
<polygon fill="none" stroke="#000000" points="10,-25 10,-47 91,-47 91,-25 10,-25"/>
<image xlink:href="../../images/primaryKeys.png" width="11px" height="12px" preserveAspectRatio="xMinYMin meet" x="15" y="-42"/>
<text text-anchor="start" x="30" y="-32.1" font-family="Helvetica,sans-Serif" font-size="11.00" fill="#000000">id</text>
<polygon fill="none" stroke="#000000" points="91,-25 91,-47 174,-47 174,-25 91,-25"/>
<text text-anchor="start" x="93.6782" y="-32.7" font-family="Helvetica,sans-Serif" font-size="11.00" fill="#000000">int unsigned[10]</text>
<polygon fill="#ffffff" stroke="transparent" points="10,-6 10,-25 42,-25 42,-6 10,-6"/>
<polygon fill="none" stroke="#000000" points="10,-6 10,-25 42,-25 42,-6 10,-6"/>
<text text-anchor="start" x="13" y="-12.1" font-family="Helvetica,sans-Serif" font-size="11.00" fill="#000000">&lt; 0</text>
<polygon fill="#ffffff" stroke="transparent" points="42,-6 42,-25 91,-25 91,-6 42,-6"/>
<polygon fill="none" stroke="#000000" points="42,-6 42,-25 91,-25 91,-6 42,-6"/>
<text text-anchor="start" x="55.6105" y="-12.1" font-family="Helvetica,sans-Serif" font-size="11.00" fill="#000000">0 rows</text>
<polygon fill="#ffffff" stroke="transparent" points="91,-6 91,-25 174,-25 174,-6 91,-6"/>
<polygon fill="none" stroke="#000000" points="91,-6 91,-25 174,-25 174,-6 91,-6"/>
<text text-anchor="start" x="155.4053" y="-12.1" font-family="Helvetica,sans-Serif" font-size="11.00" fill="#000000">0 &gt;</text>
<polygon fill="none" stroke="#000000" stroke-width="2" points="9,-5 9,-71 175,-71 175,-5 9,-5"/>
</a>
</g>
</g>
</g>
</svg>
