<?xml version="1.0" encoding="UTF-8" standalone="no"?>
<!DOCTYPE svg PUBLIC "-//W3C//DTD SVG 1.1//EN"
 "http://www.w3.org/Graphics/SVG/1.1/DTD/svg11.dtd">
<!-- Generated by graphviz version 2.40.1 (20161225.0304)
 -->
<!-- Title: personal_access_tokens Pages: 1 -->
<svg width="289pt" height="282pt"
 viewBox="0.00 0.00 289.00 282.00" xmlns="http://www.w3.org/2000/svg" xmlns:xlink="http://www.w3.org/1999/xlink">
<g id="graph0" class="graph" transform="scale(1 1) rotate(0) translate(4 278)">
<title>personal_access_tokens</title>
<polygon fill="#ffffff" stroke="transparent" points="-4,4 -4,-278 285,-278 285,4 -4,4"/>
<!-- personal_access_tokens -->
<g id="node1" class="node">
<title>personal_access_tokens</title>
<g id="a_node1"><a xlink:href="../../tables/personal_access_tokens.html" xlink:title="personal_access_tokens" target="_top">
<polygon fill="#ffffff" stroke="transparent" points="8,-4 8,-270 273,-270 273,-4 8,-4"/>
<polygon fill="#f5f5f5" stroke="transparent" points="10.5,-245 10.5,-268 271.5,-268 271.5,-245 10.5,-245"/>
<polygon fill="none" stroke="#000000" points="10.5,-245 10.5,-268 271.5,-268 271.5,-245 10.5,-245"/>
<text text-anchor="start" x="15.5" y="-254.1" font-family="Helvetica,sans-Serif" font-weight="bold" font-size="11.00" fill="#000000">personal_access_tokens</text>
<text text-anchor="start" x="236.5437" y="-253.1" font-family="Helvetica,sans-Serif" font-size="11.00" fill="#000000">[table]</text>
<polygon fill="none" stroke="#000000" points="10.5,-223 10.5,-245 173.5,-245 173.5,-223 10.5,-223"/>
<image xlink:href="../../images/primaryKeys.png" width="11px" height="12px" preserveAspectRatio="xMinYMin meet" x="15.5" y="-240"/>
<text text-anchor="start" x="30.5" y="-230.1" font-family="Helvetica,sans-Serif" font-size="11.00" fill="#000000">id</text>
<polygon fill="none" stroke="#000000" points="173.5,-223 173.5,-245 271.5,-245 271.5,-223 173.5,-223"/>
<text text-anchor="start" x="176.3429" y="-230.7" font-family="Helvetica,sans-Serif" font-size="11.00" fill="#000000">bigint unsigned[20]</text>
<polygon fill="#ffffff" stroke="transparent" points="10.5,-201 10.5,-223 173.5,-223 173.5,-201 10.5,-201"/>
<polygon fill="none" stroke="#000000" points="10.5,-201 10.5,-223 173.5,-223 173.5,-201 10.5,-201"/>
<text text-anchor="start" x="30.5" y="-208.1" font-family="Helvetica,sans-Serif" font-size="11.00" fill="#000000">tokenable_type</text>
<polygon fill="none" stroke="#000000" points="173.5,-201 173.5,-223 271.5,-223 271.5,-201 173.5,-201"/>
<text text-anchor="start" x="176.5" y="-208.7" font-family="Helvetica,sans-Serif" font-size="11.00" fill="#000000">varchar[255]</text>
<polygon fill="#ffffff" stroke="transparent" points="10.5,-179 10.5,-201 173.5,-201 173.5,-179 10.5,-179"/>
<polygon fill="none" stroke="#000000" points="10.5,-179 10.5,-201 173.5,-201 173.5,-179 10.5,-179"/>
<text text-anchor="start" x="30.5" y="-186.1" font-family="Helvetica,sans-Serif" font-size="11.00" fill="#000000">tokenable_id</text>
<polygon fill="none" stroke="#000000" points="173.5,-179 173.5,-201 271.5,-201 271.5,-179 173.5,-179"/>
<text text-anchor="start" x="176.3429" y="-186.7" font-family="Helvetica,sans-Serif" font-size="11.00" fill="#000000">bigint unsigned[20]</text>
<polygon fill="none" stroke="#000000" points="10.5,-157 10.5,-179 173.5,-179 173.5,-157 10.5,-157"/>
<text text-anchor="start" x="30.5" y="-164.1" font-family="Helvetica,sans-Serif" font-size="11.00" fill="#000000">name</text>
<polygon fill="none" stroke="#000000" points="173.5,-157 173.5,-179 271.5,-179 271.5,-157 173.5,-157"/>
<text text-anchor="start" x="176.5" y="-164.7" font-family="Helvetica,sans-Serif" font-size="11.00" fill="#000000">varchar[255]</text>
<polygon fill="#ffffff" stroke="transparent" points="10.5,-135 10.5,-157 173.5,-157 173.5,-135 10.5,-135"/>
<polygon fill="none" stroke="#000000" points="10.5,-135 10.5,-157 173.5,-157 173.5,-135 10.5,-135"/>
<text text-anchor="start" x="30.5" y="-142.1" font-family="Helvetica,sans-Serif" font-size="11.00" fill="#000000">token</text>
<polygon fill="none" stroke="#000000" points="173.5,-135 173.5,-157 271.5,-157 271.5,-135 173.5,-135"/>
<text text-anchor="start" x="176.5" y="-142.7" font-family="Helvetica,sans-Serif" font-size="11.00" fill="#000000">varchar[64]</text>
<polygon fill="none" stroke="#000000" points="10.5,-113 10.5,-135 173.5,-135 173.5,-113 10.5,-113"/>
<text text-anchor="start" x="30.5" y="-120.1" font-family="Helvetica,sans-Serif" font-size="11.00" fill="#000000">abilities</text>
<polygon fill="none" stroke="#000000" points="173.5,-113 173.5,-135 271.5,-135 271.5,-113 173.5,-113"/>
<text text-anchor="start" x="176.5" y="-120.7" font-family="Helvetica,sans-Serif" font-size="11.00" fill="#000000">text[65535]</text>
<polygon fill="none" stroke="#000000" points="10.5,-91 10.5,-113 173.5,-113 173.5,-91 10.5,-91"/>
<text text-anchor="start" x="30.5" y="-98.1" font-family="Helvetica,sans-Serif" font-size="11.00" fill="#000000">last_used_at</text>
<polygon fill="none" stroke="#000000" points="173.5,-91 173.5,-113 271.5,-113 271.5,-91 173.5,-91"/>
<text text-anchor="start" x="176.5" y="-98.7" font-family="Helvetica,sans-Serif" font-size="11.00" fill="#000000">timestamp[19]</text>
<polygon fill="none" stroke="#000000" points="10.5,-69 10.5,-91 173.5,-91 173.5,-69 10.5,-69"/>
<text text-anchor="start" x="30.5" y="-76.1" font-family="Helvetica,sans-Serif" font-size="11.00" fill="#000000">expires_at</text>
<polygon fill="none" stroke="#000000" points="173.5,-69 173.5,-91 271.5,-91 271.5,-69 173.5,-69"/>
<text text-anchor="start" x="176.5" y="-76.7" font-family="Helvetica,sans-Serif" font-size="11.00" fill="#000000">timestamp[19]</text>
<polygon fill="none" stroke="#000000" points="10.5,-47 10.5,-69 173.5,-69 173.5,-47 10.5,-47"/>
<text text-anchor="start" x="30.5" y="-54.1" font-family="Helvetica,sans-Serif" font-size="11.00" fill="#000000">created_at</text>
<polygon fill="none" stroke="#000000" points="173.5,-47 173.5,-69 271.5,-69 271.5,-47 173.5,-47"/>
<text text-anchor="start" x="176.5" y="-54.7" font-family="Helvetica,sans-Serif" font-size="11.00" fill="#000000">timestamp[19]</text>
<polygon fill="none" stroke="#000000" points="10.5,-25 10.5,-47 173.5,-47 173.5,-25 10.5,-25"/>
<text text-anchor="start" x="30.5" y="-32.1" font-family="Helvetica,sans-Serif" font-size="11.00" fill="#000000">updated_at</text>
<polygon fill="none" stroke="#000000" points="173.5,-25 173.5,-47 271.5,-47 271.5,-25 173.5,-25"/>
<text text-anchor="start" x="176.5" y="-32.7" font-family="Helvetica,sans-Serif" font-size="11.00" fill="#000000">timestamp[19]</text>
<polygon fill="#ffffff" stroke="transparent" points="10.5,-6 10.5,-25 83.5,-25 83.5,-6 10.5,-6"/>
<polygon fill="none" stroke="#000000" points="10.5,-6 10.5,-25 83.5,-25 83.5,-6 10.5,-6"/>
<text text-anchor="start" x="13.5" y="-12.1" font-family="Helvetica,sans-Serif" font-size="11.00" fill="#000000">&lt; 0</text>
<polygon fill="#ffffff" stroke="transparent" points="83.5,-6 83.5,-25 173.5,-25 173.5,-6 83.5,-6"/>
<polygon fill="none" stroke="#000000" points="83.5,-6 83.5,-25 173.5,-25 173.5,-6 83.5,-6"/>
<text text-anchor="start" x="138.1105" y="-12.1" font-family="Helvetica,sans-Serif" font-size="11.00" fill="#000000">0 rows</text>
<polygon fill="#ffffff" stroke="transparent" points="173.5,-6 173.5,-25 271.5,-25 271.5,-6 173.5,-6"/>
<polygon fill="none" stroke="#000000" points="173.5,-6 173.5,-25 271.5,-25 271.5,-6 173.5,-6"/>
<text text-anchor="start" x="252.9053" y="-12.1" font-family="Helvetica,sans-Serif" font-size="11.00" fill="#000000">0 &gt;</text>
<polygon fill="none" stroke="#000000" stroke-width="2" points="9,-5 9,-269 272,-269 272,-5 9,-5"/>
</a>
</g>
</g>
</g>
</svg>
