<?xml version="1.0" encoding="UTF-8" standalone="no"?>
<!DOCTYPE svg PUBLIC "-//W3C//DTD SVG 1.1//EN"
 "http://www.w3.org/Graphics/SVG/1.1/DTD/svg11.dtd">
<!-- Generated by graphviz version 2.40.1 (20161225.0304)
 -->
<!-- Title: shops Pages: 1 -->
<svg width="222pt" height="216pt"
 viewBox="0.00 0.00 222.00 216.00" xmlns="http://www.w3.org/2000/svg" xmlns:xlink="http://www.w3.org/1999/xlink">
<g id="graph0" class="graph" transform="scale(1 1) rotate(0) translate(4 212)">
<title>shops</title>
<polygon fill="#ffffff" stroke="transparent" points="-4,4 -4,-212 218,-212 218,4 -4,4"/>
<!-- shops -->
<g id="node1" class="node">
<title>shops</title>
<g id="a_node1"><a xlink:href="../../tables/shops.html" xlink:title="shops" target="_top">
<polygon fill="#ffffff" stroke="transparent" points="8,-4 8,-204 206,-204 206,-4 8,-4"/>
<polygon fill="#f5f5f5" stroke="transparent" points="10,-179 10,-202 204,-202 204,-179 10,-179"/>
<polygon fill="none" stroke="#000000" points="10,-179 10,-202 204,-202 204,-179 10,-179"/>
<text text-anchor="start" x="15" y="-188.1" font-family="Helvetica,sans-Serif" font-weight="bold" font-size="11.00" fill="#000000">shops</text>
<text text-anchor="start" x="169.0437" y="-187.1" font-family="Helvetica,sans-Serif" font-size="11.00" fill="#000000">[table]</text>
<polygon fill="none" stroke="#000000" points="10,-157 10,-179 121,-179 121,-157 10,-157"/>
<image xlink:href="../../images/primaryKeys.png" width="11px" height="12px" preserveAspectRatio="xMinYMin meet" x="15" y="-174"/>
<text text-anchor="start" x="30" y="-164.1" font-family="Helvetica,sans-Serif" font-size="11.00" fill="#000000">id</text>
<polygon fill="none" stroke="#000000" points="121,-157 121,-179 204,-179 204,-157 121,-157"/>
<text text-anchor="start" x="123.6783" y="-164.7" font-family="Helvetica,sans-Serif" font-size="11.00" fill="#000000">int unsigned[10]</text>
<polygon fill="none" stroke="#000000" points="10,-135 10,-157 121,-157 121,-135 10,-135"/>
<text text-anchor="start" x="30" y="-142.1" font-family="Helvetica,sans-Serif" font-size="11.00" fill="#000000">shop_name</text>
<polygon fill="none" stroke="#000000" points="121,-135 121,-157 204,-157 204,-135 121,-135"/>
<text text-anchor="start" x="124" y="-142.7" font-family="Helvetica,sans-Serif" font-size="11.00" fill="#000000">varchar[255]</text>
<polygon fill="none" stroke="#000000" points="10,-113 10,-135 121,-135 121,-113 10,-113"/>
<text text-anchor="start" x="30" y="-120.1" font-family="Helvetica,sans-Serif" font-size="11.00" fill="#000000">shop_tt_code</text>
<polygon fill="none" stroke="#000000" points="121,-113 121,-135 204,-135 204,-113 121,-113"/>
<text text-anchor="start" x="124" y="-120.7" font-family="Helvetica,sans-Serif" font-size="11.00" fill="#000000">varchar[10]</text>
<polygon fill="none" stroke="#000000" points="10,-91 10,-113 121,-113 121,-91 10,-91"/>
<text text-anchor="start" x="30" y="-98.1" font-family="Helvetica,sans-Serif" font-size="11.00" fill="#000000">visibility_status</text>
<polygon fill="none" stroke="#000000" points="121,-91 121,-113 204,-113 204,-91 121,-91"/>
<text text-anchor="start" x="124" y="-98.7" font-family="Helvetica,sans-Serif" font-size="11.00" fill="#000000">int[10]</text>
<polygon fill="none" stroke="#000000" points="10,-69 10,-91 121,-91 121,-69 10,-69"/>
<text text-anchor="start" x="30" y="-76.1" font-family="Helvetica,sans-Serif" font-size="11.00" fill="#000000">created_at</text>
<polygon fill="none" stroke="#000000" points="121,-69 121,-91 204,-91 204,-69 121,-69"/>
<text text-anchor="start" x="124" y="-76.7" font-family="Helvetica,sans-Serif" font-size="11.00" fill="#000000">datetime[19]</text>
<polygon fill="none" stroke="#000000" points="10,-47 10,-69 121,-69 121,-47 10,-47"/>
<text text-anchor="start" x="30" y="-54.1" font-family="Helvetica,sans-Serif" font-size="11.00" fill="#000000">updated_at</text>
<polygon fill="none" stroke="#000000" points="121,-47 121,-69 204,-69 204,-47 121,-47"/>
<text text-anchor="start" x="124" y="-54.7" font-family="Helvetica,sans-Serif" font-size="11.00" fill="#000000">datetime[19]</text>
<polygon fill="none" stroke="#000000" points="10,-25 10,-47 121,-47 121,-25 10,-25"/>
<text text-anchor="start" x="30" y="-32.1" font-family="Helvetica,sans-Serif" font-size="11.00" fill="#000000">deleted_at</text>
<polygon fill="none" stroke="#000000" points="121,-25 121,-47 204,-47 204,-25 121,-25"/>
<text text-anchor="start" x="124" y="-32.7" font-family="Helvetica,sans-Serif" font-size="11.00" fill="#000000">datetime[19]</text>
<polygon fill="#ffffff" stroke="transparent" points="10,-6 10,-25 57,-25 57,-6 10,-6"/>
<polygon fill="none" stroke="#000000" points="10,-6 10,-25 57,-25 57,-6 10,-6"/>
<text text-anchor="start" x="13" y="-12.1" font-family="Helvetica,sans-Serif" font-size="11.00" fill="#000000">&lt; 0</text>
<polygon fill="#ffffff" stroke="transparent" points="57,-6 57,-25 121,-25 121,-6 57,-6"/>
<polygon fill="none" stroke="#000000" points="57,-6 57,-25 121,-25 121,-6 57,-6"/>
<text text-anchor="start" x="85.6105" y="-12.1" font-family="Helvetica,sans-Serif" font-size="11.00" fill="#000000">2 rows</text>
<polygon fill="#ffffff" stroke="transparent" points="121,-6 121,-25 204,-25 204,-6 121,-6"/>
<polygon fill="none" stroke="#000000" points="121,-6 121,-25 204,-25 204,-6 121,-6"/>
<text text-anchor="start" x="185.4053" y="-12.1" font-family="Helvetica,sans-Serif" font-size="11.00" fill="#000000">0 &gt;</text>
<polygon fill="none" stroke="#000000" stroke-width="2" points="9,-5 9,-203 205,-203 205,-5 9,-5"/>
</a>
</g>
</g>
</g>
</svg>
