<?xml version="1.0" encoding="UTF-8" standalone="no"?>
<!DOCTYPE svg PUBLIC "-//W3C//DTD SVG 1.1//EN"
 "http://www.w3.org/Graphics/SVG/1.1/DTD/svg11.dtd">
<!-- Generated by graphviz version 2.40.1 (20161225.0304)
 -->
<!-- Title: sub_categories Pages: 1 -->
<svg width="220pt" height="84pt"
 viewBox="0.00 0.00 220.00 84.00" xmlns="http://www.w3.org/2000/svg" xmlns:xlink="http://www.w3.org/1999/xlink">
<g id="graph0" class="graph" transform="scale(1 1) rotate(0) translate(4 80)">
<title>sub_categories</title>
<polygon fill="#ffffff" stroke="transparent" points="-4,4 -4,-80 216,-80 216,4 -4,4"/>
<!-- sub_categories -->
<g id="node1" class="node">
<title>sub_categories</title>
<g id="a_node1"><a xlink:href="../../tables/sub_categories.html" xlink:title="sub_categories" target="_top">
<polygon fill="#ffffff" stroke="transparent" points="8,-4 8,-72 204,-72 204,-4 8,-4"/>
<polygon fill="#f5f5f5" stroke="transparent" points="10,-47 10,-70 202,-70 202,-47 10,-47"/>
<polygon fill="none" stroke="#000000" points="10,-47 10,-70 202,-70 202,-47 10,-47"/>
<text text-anchor="start" x="15" y="-56.1" font-family="Helvetica,sans-Serif" font-weight="bold" font-size="11.00" fill="#000000">sub_categories</text>
<text text-anchor="start" x="167.0437" y="-55.1" font-family="Helvetica,sans-Serif" font-size="11.00" fill="#000000">[table]</text>
<polygon fill="none" stroke="#000000" points="10,-25 10,-47 119,-47 119,-25 10,-25"/>
<image xlink:href="../../images/primaryKeys.png" width="11px" height="12px" preserveAspectRatio="xMinYMin meet" x="15" y="-42"/>
<text text-anchor="start" x="30" y="-32.1" font-family="Helvetica,sans-Serif" font-size="11.00" fill="#000000">id</text>
<polygon fill="none" stroke="#000000" points="119,-25 119,-47 202,-47 202,-25 119,-25"/>
<text text-anchor="start" x="121.6783" y="-32.7" font-family="Helvetica,sans-Serif" font-size="11.00" fill="#000000">int unsigned[10]</text>
<polygon fill="#ffffff" stroke="transparent" points="10,-6 10,-25 56,-25 56,-6 10,-6"/>
<polygon fill="none" stroke="#000000" points="10,-6 10,-25 56,-25 56,-6 10,-6"/>
<text text-anchor="start" x="13" y="-12.1" font-family="Helvetica,sans-Serif" font-size="11.00" fill="#000000">&lt; 0</text>
<polygon fill="#ffffff" stroke="transparent" points="56,-6 56,-25 119,-25 119,-6 56,-6"/>
<polygon fill="none" stroke="#000000" points="56,-6 56,-25 119,-25 119,-6 56,-6"/>
<text text-anchor="start" x="83.6105" y="-12.1" font-family="Helvetica,sans-Serif" font-size="11.00" fill="#000000">0 rows</text>
<polygon fill="#ffffff" stroke="transparent" points="119,-6 119,-25 202,-25 202,-6 119,-6"/>
<polygon fill="none" stroke="#000000" points="119,-6 119,-25 202,-25 202,-6 119,-6"/>
<text text-anchor="start" x="183.4053" y="-12.1" font-family="Helvetica,sans-Serif" font-size="11.00" fill="#000000">0 &gt;</text>
<polygon fill="none" stroke="#000000" stroke-width="2" points="9,-5 9,-71 203,-71 203,-5 9,-5"/>
</a>
</g>
</g>
</g>
</svg>
