<?xml version="1.0" encoding="UTF-8" standalone="no"?>
<!DOCTYPE svg PUBLIC "-//W3C//DTD SVG 1.1//EN"
 "http://www.w3.org/Graphics/SVG/1.1/DTD/svg11.dtd">
<!-- Generated by graphviz version 2.40.1 (20161225.0304)
 -->
<!-- Title: brands Pages: 1 -->
<svg width="182pt" height="84pt"
 viewBox="0.00 0.00 182.00 84.00" xmlns="http://www.w3.org/2000/svg" xmlns:xlink="http://www.w3.org/1999/xlink">
<g id="graph0" class="graph" transform="scale(1 1) rotate(0) translate(4 80)">
<title>brands</title>
<polygon fill="#ffffff" stroke="transparent" points="-4,4 -4,-80 178,-80 178,4 -4,4"/>
<!-- brands -->
<g id="node1" class="node">
<title>brands</title>
<g id="a_node1"><a xlink:href="../../tables/brands.html" xlink:title="brands" target="_top">
<polygon fill="#ffffff" stroke="transparent" points="8,-4 8,-72 166,-72 166,-4 8,-4"/>
<polygon fill="#f5f5f5" stroke="transparent" points="10,-47 10,-70 164,-70 164,-47 10,-47"/>
<polygon fill="none" stroke="#000000" points="10,-47 10,-70 164,-70 164,-47 10,-47"/>
<text text-anchor="start" x="15" y="-56.1" font-family="Helvetica,sans-Serif" font-weight="bold" font-size="11.00" fill="#000000">brands</text>
<text text-anchor="start" x="129.0437" y="-55.1" font-family="Helvetica,sans-Serif" font-size="11.00" fill="#000000">[table]</text>
<polygon fill="none" stroke="#000000" points="10,-25 10,-47 81,-47 81,-25 10,-25"/>
<image xlink:href="../../images/primaryKeys.png" width="11px" height="12px" preserveAspectRatio="xMinYMin meet" x="15" y="-42"/>
<text text-anchor="start" x="30" y="-32.1" font-family="Helvetica,sans-Serif" font-size="11.00" fill="#000000">brand_id</text>
<polygon fill="none" stroke="#000000" points="81,-25 81,-47 164,-47 164,-25 81,-25"/>
<text text-anchor="start" x="83.6782" y="-32.7" font-family="Helvetica,sans-Serif" font-size="11.00" fill="#000000">int unsigned[10]</text>
<polygon fill="#ffffff" stroke="transparent" points="10,-6 10,-25 37,-25 37,-6 10,-6"/>
<polygon fill="none" stroke="#000000" points="10,-6 10,-25 37,-25 37,-6 10,-6"/>
<text text-anchor="start" x="13" y="-12.1" font-family="Helvetica,sans-Serif" font-size="11.00" fill="#000000">&lt; 0</text>
<polygon fill="#ffffff" stroke="transparent" points="37,-6 37,-25 81,-25 81,-6 37,-6"/>
<polygon fill="none" stroke="#000000" points="37,-6 37,-25 81,-25 81,-6 37,-6"/>
<text text-anchor="start" x="45.6105" y="-12.1" font-family="Helvetica,sans-Serif" font-size="11.00" fill="#000000">0 rows</text>
<polygon fill="#ffffff" stroke="transparent" points="81,-6 81,-25 164,-25 164,-6 81,-6"/>
<polygon fill="none" stroke="#000000" points="81,-6 81,-25 164,-25 164,-6 81,-6"/>
<text text-anchor="start" x="145.4053" y="-12.1" font-family="Helvetica,sans-Serif" font-size="11.00" fill="#000000">0 &gt;</text>
<polygon fill="none" stroke="#000000" stroke-width="2" points="9,-5 9,-71 165,-71 165,-5 9,-5"/>
</a>
</g>
</g>
</g>
</svg>
