<?xml version="1.0" encoding="UTF-8" standalone="no"?>
<!DOCTYPE svg PUBLIC "-//W3C//DTD SVG 1.1//EN"
 "http://www.w3.org/Graphics/SVG/1.1/DTD/svg11.dtd">
<!-- Generated by graphviz version 2.40.1 (20161225.0304)
 -->
<!-- Title: filter_tags Pages: 1 -->
<svg width="189pt" height="84pt"
 viewBox="0.00 0.00 189.00 84.00" xmlns="http://www.w3.org/2000/svg" xmlns:xlink="http://www.w3.org/1999/xlink">
<g id="graph0" class="graph" transform="scale(1 1) rotate(0) translate(4 80)">
<title>filter_tags</title>
<polygon fill="#ffffff" stroke="transparent" points="-4,4 -4,-80 185,-80 185,4 -4,4"/>
<!-- filter_tags -->
<g id="node1" class="node">
<title>filter_tags</title>
<g id="a_node1"><a xlink:href="../../tables/filter_tags.html" xlink:title="filter_tags" target="_top">
<polygon fill="#ffffff" stroke="transparent" points="8,-4 8,-72 173,-72 173,-4 8,-4"/>
<polygon fill="#f5f5f5" stroke="transparent" points="10.5,-47 10.5,-70 171.5,-70 171.5,-47 10.5,-47"/>
<polygon fill="none" stroke="#000000" points="10.5,-47 10.5,-70 171.5,-70 171.5,-47 10.5,-47"/>
<text text-anchor="start" x="15.5" y="-56.1" font-family="Helvetica,sans-Serif" font-weight="bold" font-size="11.00" fill="#000000">filter_tags</text>
<text text-anchor="start" x="136.5437" y="-55.1" font-family="Helvetica,sans-Serif" font-size="11.00" fill="#000000">[table]</text>
<polygon fill="none" stroke="#000000" points="10.5,-25 10.5,-47 88.5,-47 88.5,-25 10.5,-25"/>
<image xlink:href="../../images/primaryKeys.png" width="11px" height="12px" preserveAspectRatio="xMinYMin meet" x="15.5" y="-42"/>
<text text-anchor="start" x="30.5" y="-32.1" font-family="Helvetica,sans-Serif" font-size="11.00" fill="#000000">id</text>
<polygon fill="none" stroke="#000000" points="88.5,-25 88.5,-47 171.5,-47 171.5,-25 88.5,-25"/>
<text text-anchor="start" x="91.1782" y="-32.7" font-family="Helvetica,sans-Serif" font-size="11.00" fill="#000000">int unsigned[10]</text>
<polygon fill="#ffffff" stroke="transparent" points="10.5,-6 10.5,-25 40.5,-25 40.5,-6 10.5,-6"/>
<polygon fill="none" stroke="#000000" points="10.5,-6 10.5,-25 40.5,-25 40.5,-6 10.5,-6"/>
<text text-anchor="start" x="13.5" y="-12.1" font-family="Helvetica,sans-Serif" font-size="11.00" fill="#000000">&lt; 0</text>
<polygon fill="#ffffff" stroke="transparent" points="40.5,-6 40.5,-25 88.5,-25 88.5,-6 40.5,-6"/>
<polygon fill="none" stroke="#000000" points="40.5,-6 40.5,-25 88.5,-25 88.5,-6 40.5,-6"/>
<text text-anchor="start" x="53.1105" y="-12.1" font-family="Helvetica,sans-Serif" font-size="11.00" fill="#000000">0 rows</text>
<polygon fill="#ffffff" stroke="transparent" points="88.5,-6 88.5,-25 171.5,-25 171.5,-6 88.5,-6"/>
<polygon fill="none" stroke="#000000" points="88.5,-6 88.5,-25 171.5,-25 171.5,-6 88.5,-6"/>
<text text-anchor="start" x="152.9053" y="-12.1" font-family="Helvetica,sans-Serif" font-size="11.00" fill="#000000">0 &gt;</text>
<polygon fill="none" stroke="#000000" stroke-width="2" points="9,-5 9,-71 172,-71 172,-5 9,-5"/>
</a>
</g>
</g>
</g>
</svg>
