<?xml version="1.0" encoding="UTF-8" standalone="no"?>
<!DOCTYPE svg PUBLIC "-//W3C//DTD SVG 1.1//EN"
 "http://www.w3.org/Graphics/SVG/1.1/DTD/svg11.dtd">
<!-- Generated by graphviz version 2.40.1 (20161225.0304)
 -->
<!-- Title: filter_colors Pages: 1 -->
<svg width="200pt" height="84pt"
 viewBox="0.00 0.00 200.00 84.00" xmlns="http://www.w3.org/2000/svg" xmlns:xlink="http://www.w3.org/1999/xlink">
<g id="graph0" class="graph" transform="scale(1 1) rotate(0) translate(4 80)">
<title>filter_colors</title>
<polygon fill="#ffffff" stroke="transparent" points="-4,4 -4,-80 196,-80 196,4 -4,4"/>
<!-- filter_colors -->
<g id="node1" class="node">
<title>filter_colors</title>
<g id="a_node1"><a xlink:href="../../tables/filter_colors.html" xlink:title="filter_colors" target="_top">
<polygon fill="#ffffff" stroke="transparent" points="8,-4 8,-72 184,-72 184,-4 8,-4"/>
<polygon fill="#f5f5f5" stroke="transparent" points="10,-47 10,-70 182,-70 182,-47 10,-47"/>
<polygon fill="none" stroke="#000000" points="10,-47 10,-70 182,-70 182,-47 10,-47"/>
<text text-anchor="start" x="15" y="-56.1" font-family="Helvetica,sans-Serif" font-weight="bold" font-size="11.00" fill="#000000">filter_colors</text>
<text text-anchor="start" x="147.0437" y="-55.1" font-family="Helvetica,sans-Serif" font-size="11.00" fill="#000000">[table]</text>
<polygon fill="none" stroke="#000000" points="10,-25 10,-47 99,-47 99,-25 10,-25"/>
<image xlink:href="../../images/primaryKeys.png" width="11px" height="12px" preserveAspectRatio="xMinYMin meet" x="15" y="-42"/>
<text text-anchor="start" x="30" y="-32.1" font-family="Helvetica,sans-Serif" font-size="11.00" fill="#000000">id</text>
<polygon fill="none" stroke="#000000" points="99,-25 99,-47 182,-47 182,-25 99,-25"/>
<text text-anchor="start" x="101.6782" y="-32.7" font-family="Helvetica,sans-Serif" font-size="11.00" fill="#000000">int unsigned[10]</text>
<polygon fill="#ffffff" stroke="transparent" points="10,-6 10,-25 46,-25 46,-6 10,-6"/>
<polygon fill="none" stroke="#000000" points="10,-6 10,-25 46,-25 46,-6 10,-6"/>
<text text-anchor="start" x="13" y="-12.1" font-family="Helvetica,sans-Serif" font-size="11.00" fill="#000000">&lt; 0</text>
<polygon fill="#ffffff" stroke="transparent" points="46,-6 46,-25 99,-25 99,-6 46,-6"/>
<polygon fill="none" stroke="#000000" points="46,-6 46,-25 99,-25 99,-6 46,-6"/>
<text text-anchor="start" x="63.6105" y="-12.1" font-family="Helvetica,sans-Serif" font-size="11.00" fill="#000000">0 rows</text>
<polygon fill="#ffffff" stroke="transparent" points="99,-6 99,-25 182,-25 182,-6 99,-6"/>
<polygon fill="none" stroke="#000000" points="99,-6 99,-25 182,-25 182,-6 99,-6"/>
<text text-anchor="start" x="163.4053" y="-12.1" font-family="Helvetica,sans-Serif" font-size="11.00" fill="#000000">0 &gt;</text>
<polygon fill="none" stroke="#000000" stroke-width="2" points="9,-5 9,-71 183,-71 183,-5 9,-5"/>
</a>
</g>
</g>
</g>
</svg>
