<?xml version="1.0" encoding="UTF-8" standalone="no"?>
<!DOCTYPE svg PUBLIC "-//W3C//DTD SVG 1.1//EN"
 "http://www.w3.org/Graphics/SVG/1.1/DTD/svg11.dtd">
<!-- Generated by graphviz version 2.40.1 (20161225.0304)
 -->
<!-- Title: item_recommends Pages: 1 -->
<svg width="248pt" height="106pt"
 viewBox="0.00 0.00 248.00 106.00" xmlns="http://www.w3.org/2000/svg" xmlns:xlink="http://www.w3.org/1999/xlink">
<g id="graph0" class="graph" transform="scale(1 1) rotate(0) translate(4 102)">
<title>item_recommends</title>
<polygon fill="#ffffff" stroke="transparent" points="-4,4 -4,-102 244,-102 244,4 -4,4"/>
<!-- item_recommends -->
<g id="node1" class="node">
<title>item_recommends</title>
<g id="a_node1"><a xlink:href="../../tables/item_recommends.html" xlink:title="item_recommends" target="_top">
<polygon fill="#ffffff" stroke="transparent" points="8,-4 8,-94 232,-94 232,-4 8,-4"/>
<polygon fill="#f5f5f5" stroke="transparent" points="10,-69 10,-92 230,-92 230,-69 10,-69"/>
<polygon fill="none" stroke="#000000" points="10,-69 10,-92 230,-92 230,-69 10,-69"/>
<text text-anchor="start" x="15" y="-78.1" font-family="Helvetica,sans-Serif" font-weight="bold" font-size="11.00" fill="#000000">item_recommends</text>
<text text-anchor="start" x="195.0437" y="-77.1" font-family="Helvetica,sans-Serif" font-size="11.00" fill="#000000">[table]</text>
<polygon fill="none" stroke="#000000" points="10,-47 10,-69 147,-69 147,-47 10,-47"/>
<image xlink:href="../../images/primaryKeys.png" width="11px" height="12px" preserveAspectRatio="xMinYMin meet" x="15" y="-64"/>
<text text-anchor="start" x="30" y="-54.1" font-family="Helvetica,sans-Serif" font-size="11.00" fill="#000000">item_id</text>
<polygon fill="none" stroke="#000000" points="147,-47 147,-69 230,-69 230,-47 147,-47"/>
<text text-anchor="start" x="149.6783" y="-54.7" font-family="Helvetica,sans-Serif" font-size="11.00" fill="#000000">int unsigned[10]</text>
<polygon fill="none" stroke="#000000" points="10,-25 10,-47 147,-47 147,-25 10,-25"/>
<text text-anchor="start" x="30" y="-32.1" font-family="Helvetica,sans-Serif" font-size="11.00" fill="#000000">recommend_item_id</text>
<polygon fill="none" stroke="#000000" points="147,-25 147,-47 230,-47 230,-25 147,-25"/>
<text text-anchor="start" x="150" y="-32.7" font-family="Helvetica,sans-Serif" font-size="11.00" fill="#000000">int[10]</text>
<polygon fill="#ffffff" stroke="transparent" points="10,-6 10,-25 70,-25 70,-6 10,-6"/>
<polygon fill="none" stroke="#000000" points="10,-6 10,-25 70,-25 70,-6 10,-6"/>
<text text-anchor="start" x="13" y="-12.1" font-family="Helvetica,sans-Serif" font-size="11.00" fill="#000000">&lt; 0</text>
<polygon fill="#ffffff" stroke="transparent" points="70,-6 70,-25 147,-25 147,-6 70,-6"/>
<polygon fill="none" stroke="#000000" points="70,-6 70,-25 147,-25 147,-6 70,-6"/>
<text text-anchor="start" x="111.6105" y="-12.1" font-family="Helvetica,sans-Serif" font-size="11.00" fill="#000000">0 rows</text>
<polygon fill="#ffffff" stroke="transparent" points="147,-6 147,-25 230,-25 230,-6 147,-6"/>
<polygon fill="none" stroke="#000000" points="147,-6 147,-25 230,-25 230,-6 147,-6"/>
<text text-anchor="start" x="211.4053" y="-12.1" font-family="Helvetica,sans-Serif" font-size="11.00" fill="#000000">0 &gt;</text>
<polygon fill="none" stroke="#000000" stroke-width="2" points="9,-5 9,-93 231,-93 231,-5 9,-5"/>
</a>
</g>
</g>
</g>
</svg>
