<?xml version="1.0" encoding="UTF-8" standalone="no"?>
<!DOCTYPE svg PUBLIC "-//W3C//DTD SVG 1.1//EN"
 "http://www.w3.org/Graphics/SVG/1.1/DTD/svg11.dtd">
<!-- Generated by graphviz version 2.40.1 (20161225.0304)
 -->
<!-- Title: item_checks Pages: 1 -->
<svg width="204pt" height="106pt"
 viewBox="0.00 0.00 204.00 106.00" xmlns="http://www.w3.org/2000/svg" xmlns:xlink="http://www.w3.org/1999/xlink">
<g id="graph0" class="graph" transform="scale(1 1) rotate(0) translate(4 102)">
<title>item_checks</title>
<polygon fill="#ffffff" stroke="transparent" points="-4,4 -4,-102 200,-102 200,4 -4,4"/>
<!-- item_checks -->
<g id="node1" class="node">
<title>item_checks</title>
<g id="a_node1"><a xlink:href="../../tables/item_checks.html" xlink:title="item_checks" target="_top">
<polygon fill="#ffffff" stroke="transparent" points="8,-4 8,-94 188,-94 188,-4 8,-4"/>
<polygon fill="#f5f5f5" stroke="transparent" points="10,-69 10,-92 186,-92 186,-69 10,-69"/>
<polygon fill="none" stroke="#000000" points="10,-69 10,-92 186,-92 186,-69 10,-69"/>
<text text-anchor="start" x="15" y="-78.1" font-family="Helvetica,sans-Serif" font-weight="bold" font-size="11.00" fill="#000000">item_checks</text>
<text text-anchor="start" x="151.0437" y="-77.1" font-family="Helvetica,sans-Serif" font-size="11.00" fill="#000000">[table]</text>
<polygon fill="none" stroke="#000000" points="10,-47 10,-69 103,-69 103,-47 10,-47"/>
<image xlink:href="../../images/primaryKeys.png" width="11px" height="12px" preserveAspectRatio="xMinYMin meet" x="15" y="-64"/>
<text text-anchor="start" x="30" y="-54.1" font-family="Helvetica,sans-Serif" font-size="11.00" fill="#000000">item_id</text>
<polygon fill="none" stroke="#000000" points="103,-47 103,-69 186,-69 186,-47 103,-47"/>
<text text-anchor="start" x="105.6783" y="-54.7" font-family="Helvetica,sans-Serif" font-size="11.00" fill="#000000">int unsigned[10]</text>
<polygon fill="none" stroke="#000000" points="10,-25 10,-47 103,-47 103,-25 10,-25"/>
<text text-anchor="start" x="30" y="-32.1" font-family="Helvetica,sans-Serif" font-size="11.00" fill="#000000">is_required</text>
<polygon fill="none" stroke="#000000" points="103,-25 103,-47 186,-47 186,-25 103,-25"/>
<text text-anchor="start" x="106" y="-32.7" font-family="Helvetica,sans-Serif" font-size="11.00" fill="#000000">tinyint[3]</text>
<polygon fill="#ffffff" stroke="transparent" points="10,-6 10,-25 48,-25 48,-6 10,-6"/>
<polygon fill="none" stroke="#000000" points="10,-6 10,-25 48,-25 48,-6 10,-6"/>
<text text-anchor="start" x="13" y="-12.1" font-family="Helvetica,sans-Serif" font-size="11.00" fill="#000000">&lt; 0</text>
<polygon fill="#ffffff" stroke="transparent" points="48,-6 48,-25 103,-25 103,-6 48,-6"/>
<polygon fill="none" stroke="#000000" points="48,-6 48,-25 103,-25 103,-6 48,-6"/>
<text text-anchor="start" x="67.6105" y="-12.1" font-family="Helvetica,sans-Serif" font-size="11.00" fill="#000000">0 rows</text>
<polygon fill="#ffffff" stroke="transparent" points="103,-6 103,-25 186,-25 186,-6 103,-6"/>
<polygon fill="none" stroke="#000000" points="103,-6 103,-25 186,-25 186,-6 103,-6"/>
<text text-anchor="start" x="167.4053" y="-12.1" font-family="Helvetica,sans-Serif" font-size="11.00" fill="#000000">0 &gt;</text>
<polygon fill="none" stroke="#000000" stroke-width="2" points="9,-5 9,-93 187,-93 187,-5 9,-5"/>
</a>
</g>
</g>
</g>
</svg>
