<?xml version="1.0" encoding="UTF-8" standalone="no"?>
<!DOCTYPE svg PUBLIC "-//W3C//DTD SVG 1.1//EN"
 "http://www.w3.org/Graphics/SVG/1.1/DTD/svg11.dtd">
<!-- Generated by graphviz version 2.40.1 (20161225.0304)
 -->
<!-- Title: item_filter_colors Pages: 1 -->
<svg width="232pt" height="106pt"
 viewBox="0.00 0.00 232.00 106.00" xmlns="http://www.w3.org/2000/svg" xmlns:xlink="http://www.w3.org/1999/xlink">
<g id="graph0" class="graph" transform="scale(1 1) rotate(0) translate(4 102)">
<title>item_filter_colors</title>
<polygon fill="#ffffff" stroke="transparent" points="-4,4 -4,-102 228,-102 228,4 -4,4"/>
<!-- item_filter_colors -->
<g id="node1" class="node">
<title>item_filter_colors</title>
<g id="a_node1"><a xlink:href="../../tables/item_filter_colors.html" xlink:title="item_filter_colors" target="_top">
<polygon fill="#ffffff" stroke="transparent" points="8,-4 8,-94 216,-94 216,-4 8,-4"/>
<polygon fill="#f5f5f5" stroke="transparent" points="10,-69 10,-92 214,-92 214,-69 10,-69"/>
<polygon fill="none" stroke="#000000" points="10,-69 10,-92 214,-92 214,-69 10,-69"/>
<text text-anchor="start" x="15" y="-78.1" font-family="Helvetica,sans-Serif" font-weight="bold" font-size="11.00" fill="#000000">item_filter_colors</text>
<text text-anchor="start" x="179.0437" y="-77.1" font-family="Helvetica,sans-Serif" font-size="11.00" fill="#000000">[table]</text>
<polygon fill="none" stroke="#000000" points="10,-47 10,-69 131,-69 131,-47 10,-47"/>
<image xlink:href="../../images/primaryKeys.png" width="11px" height="12px" preserveAspectRatio="xMinYMin meet" x="15" y="-64"/>
<text text-anchor="start" x="30" y="-54.1" font-family="Helvetica,sans-Serif" font-size="11.00" fill="#000000">item_id</text>
<polygon fill="none" stroke="#000000" points="131,-47 131,-69 214,-69 214,-47 131,-47"/>
<text text-anchor="start" x="133.6783" y="-54.7" font-family="Helvetica,sans-Serif" font-size="11.00" fill="#000000">int unsigned[10]</text>
<polygon fill="none" stroke="#000000" points="10,-25 10,-47 131,-47 131,-25 10,-25"/>
<text text-anchor="start" x="30" y="-32.1" font-family="Helvetica,sans-Serif" font-size="11.00" fill="#000000">filter_color_id</text>
<polygon fill="none" stroke="#000000" points="131,-25 131,-47 214,-47 214,-25 131,-25"/>
<text text-anchor="start" x="134" y="-32.7" font-family="Helvetica,sans-Serif" font-size="11.00" fill="#000000">int[10]</text>
<polygon fill="#ffffff" stroke="transparent" points="10,-6 10,-25 62,-25 62,-6 10,-6"/>
<polygon fill="none" stroke="#000000" points="10,-6 10,-25 62,-25 62,-6 10,-6"/>
<text text-anchor="start" x="13" y="-12.1" font-family="Helvetica,sans-Serif" font-size="11.00" fill="#000000">&lt; 0</text>
<polygon fill="#ffffff" stroke="transparent" points="62,-6 62,-25 131,-25 131,-6 62,-6"/>
<polygon fill="none" stroke="#000000" points="62,-6 62,-25 131,-25 131,-6 62,-6"/>
<text text-anchor="start" x="95.6105" y="-12.1" font-family="Helvetica,sans-Serif" font-size="11.00" fill="#000000">0 rows</text>
<polygon fill="#ffffff" stroke="transparent" points="131,-6 131,-25 214,-25 214,-6 131,-6"/>
<polygon fill="none" stroke="#000000" points="131,-6 131,-25 214,-25 214,-6 131,-6"/>
<text text-anchor="start" x="195.4053" y="-12.1" font-family="Helvetica,sans-Serif" font-size="11.00" fill="#000000">0 &gt;</text>
<polygon fill="none" stroke="#000000" stroke-width="2" points="9,-5 9,-93 215,-93 215,-5 9,-5"/>
</a>
</g>
</g>
</g>
</svg>
