<?xml version="1.0" encoding="UTF-8" standalone="no"?>
<!DOCTYPE svg PUBLIC "-//W3C//DTD SVG 1.1//EN"
 "http://www.w3.org/Graphics/SVG/1.1/DTD/svg11.dtd">
<!-- Generated by graphviz version 2.40.1 (20161225.0304)
 -->
<!-- Title: item_variation_colors Pages: 1 -->
<svg width="256pt" height="128pt"
 viewBox="0.00 0.00 256.00 128.00" xmlns="http://www.w3.org/2000/svg" xmlns:xlink="http://www.w3.org/1999/xlink">
<g id="graph0" class="graph" transform="scale(1 1) rotate(0) translate(4 124)">
<title>item_variation_colors</title>
<polygon fill="#ffffff" stroke="transparent" points="-4,4 -4,-124 252,-124 252,4 -4,4"/>
<!-- item_variation_colors -->
<g id="node1" class="node">
<title>item_variation_colors</title>
<g id="a_node1"><a xlink:href="../../tables/item_variation_colors.html" xlink:title="item_variation_colors" target="_top">
<polygon fill="#ffffff" stroke="transparent" points="8,-4 8,-116 240,-116 240,-4 8,-4"/>
<polygon fill="#f5f5f5" stroke="transparent" points="10,-91 10,-114 238,-114 238,-91 10,-91"/>
<polygon fill="none" stroke="#000000" points="10,-91 10,-114 238,-114 238,-91 10,-91"/>
<text text-anchor="start" x="15" y="-100.1" font-family="Helvetica,sans-Serif" font-weight="bold" font-size="11.00" fill="#000000">item_variation_colors</text>
<text text-anchor="start" x="203.0437" y="-99.1" font-family="Helvetica,sans-Serif" font-size="11.00" fill="#000000">[table]</text>
<polygon fill="none" stroke="#000000" points="10,-69 10,-91 155,-91 155,-69 10,-69"/>
<image xlink:href="../../images/primaryKeys.png" width="11px" height="12px" preserveAspectRatio="xMinYMin meet" x="15" y="-86"/>
<text text-anchor="start" x="30" y="-76.1" font-family="Helvetica,sans-Serif" font-size="11.00" fill="#000000">id</text>
<polygon fill="none" stroke="#000000" points="155,-69 155,-91 238,-91 238,-69 155,-69"/>
<text text-anchor="start" x="157.6783" y="-76.7" font-family="Helvetica,sans-Serif" font-size="11.00" fill="#000000">int unsigned[10]</text>
<polygon fill="none" stroke="#000000" points="10,-47 10,-69 155,-69 155,-47 10,-47"/>
<text text-anchor="start" x="30" y="-54.1" font-family="Helvetica,sans-Serif" font-size="11.00" fill="#000000">color</text>
<polygon fill="none" stroke="#000000" points="155,-47 155,-69 238,-69 238,-47 155,-47"/>
<text text-anchor="start" x="158" y="-54.7" font-family="Helvetica,sans-Serif" font-size="11.00" fill="#000000">int[10]</text>
<polygon fill="none" stroke="#000000" points="10,-25 10,-47 155,-47 155,-25 10,-25"/>
<text text-anchor="start" x="30" y="-32.1" font-family="Helvetica,sans-Serif" font-size="11.00" fill="#000000">item_image_id</text>
<polygon fill="none" stroke="#000000" points="155,-25 155,-47 238,-47 238,-25 155,-25"/>
<text text-anchor="start" x="158" y="-32.7" font-family="Helvetica,sans-Serif" font-size="11.00" fill="#000000">int[10]</text>
<polygon fill="#ffffff" stroke="transparent" points="10,-6 10,-25 74,-25 74,-6 10,-6"/>
<polygon fill="none" stroke="#000000" points="10,-6 10,-25 74,-25 74,-6 10,-6"/>
<text text-anchor="start" x="13" y="-12.1" font-family="Helvetica,sans-Serif" font-size="11.00" fill="#000000">&lt; 0</text>
<polygon fill="#ffffff" stroke="transparent" points="74,-6 74,-25 155,-25 155,-6 74,-6"/>
<polygon fill="none" stroke="#000000" points="74,-6 74,-25 155,-25 155,-6 74,-6"/>
<text text-anchor="start" x="119.6105" y="-12.1" font-family="Helvetica,sans-Serif" font-size="11.00" fill="#000000">0 rows</text>
<polygon fill="#ffffff" stroke="transparent" points="155,-6 155,-25 238,-25 238,-6 155,-6"/>
<polygon fill="none" stroke="#000000" points="155,-6 155,-25 238,-25 238,-6 155,-6"/>
<text text-anchor="start" x="219.4053" y="-12.1" font-family="Helvetica,sans-Serif" font-size="11.00" fill="#000000">0 &gt;</text>
<polygon fill="none" stroke="#000000" stroke-width="2" points="9,-5 9,-115 239,-115 239,-5 9,-5"/>
</a>
</g>
</g>
</g>
</svg>
