<?xml version="1.0" encoding="UTF-8" standalone="no"?>
<!DOCTYPE svg PUBLIC "-//W3C//DTD SVG 1.1//EN"
 "http://www.w3.org/Graphics/SVG/1.1/DTD/svg11.dtd">
<!-- Generated by graphviz version 2.40.1 (20161225.0304)
 -->
<!-- Title: item_images Pages: 1 -->
<svg width="187pt" height="194pt"
 viewBox="0.00 0.00 187.00 194.00" xmlns="http://www.w3.org/2000/svg" xmlns:xlink="http://www.w3.org/1999/xlink">
<g id="graph0" class="graph" transform="scale(1 1) rotate(0) translate(4 190)">
<title>item_images</title>
<polygon fill="#ffffff" stroke="transparent" points="-4,4 -4,-190 183,-190 183,4 -4,4"/>
<!-- item_images -->
<g id="node1" class="node">
<title>item_images</title>
<g id="a_node1"><a xlink:href="../../tables/item_images.html" xlink:title="item_images" target="_top">
<polygon fill="#ffffff" stroke="transparent" points="8,-4 8,-182 171,-182 171,-4 8,-4"/>
<polygon fill="#f5f5f5" stroke="transparent" points="10.5,-157 10.5,-180 169.5,-180 169.5,-157 10.5,-157"/>
<polygon fill="none" stroke="#000000" points="10.5,-157 10.5,-180 169.5,-180 169.5,-157 10.5,-157"/>
<text text-anchor="start" x="15.5" y="-166.1" font-family="Helvetica,sans-Serif" font-weight="bold" font-size="11.00" fill="#000000">item_images</text>
<text text-anchor="start" x="134.5437" y="-165.1" font-family="Helvetica,sans-Serif" font-size="11.00" fill="#000000">[table]</text>
<polygon fill="none" stroke="#000000" points="10.5,-135 10.5,-157 103.5,-157 103.5,-135 10.5,-135"/>
<text text-anchor="start" x="30.5" y="-142.1" font-family="Helvetica,sans-Serif" font-size="11.00" fill="#000000">item_id</text>
<polygon fill="none" stroke="#000000" points="103.5,-135 103.5,-157 169.5,-157 169.5,-135 103.5,-135"/>
<text text-anchor="start" x="106.5" y="-142.7" font-family="Helvetica,sans-Serif" font-size="11.00" fill="#000000">int[10]</text>
<polygon fill="none" stroke="#000000" points="10.5,-113 10.5,-135 103.5,-135 103.5,-113 10.5,-113"/>
<text text-anchor="start" x="30.5" y="-120.1" font-family="Helvetica,sans-Serif" font-size="11.00" fill="#000000">image_url</text>
<polygon fill="none" stroke="#000000" points="103.5,-113 103.5,-135 169.5,-135 169.5,-113 103.5,-113"/>
<text text-anchor="start" x="106.5" y="-120.7" font-family="Helvetica,sans-Serif" font-size="11.00" fill="#000000">int[10]</text>
<polygon fill="none" stroke="#000000" points="10.5,-91 10.5,-113 103.5,-113 103.5,-91 10.5,-91"/>
<text text-anchor="start" x="30.5" y="-98.1" font-family="Helvetica,sans-Serif" font-size="11.00" fill="#000000">is_sumbnail</text>
<polygon fill="none" stroke="#000000" points="103.5,-91 103.5,-113 169.5,-113 169.5,-91 103.5,-91"/>
<text text-anchor="start" x="106.5" y="-98.7" font-family="Helvetica,sans-Serif" font-size="11.00" fill="#000000">bit[1]</text>
<polygon fill="none" stroke="#000000" points="10.5,-69 10.5,-91 103.5,-91 103.5,-69 10.5,-69"/>
<text text-anchor="start" x="30.5" y="-76.1" font-family="Helvetica,sans-Serif" font-size="11.00" fill="#000000">created_at</text>
<polygon fill="none" stroke="#000000" points="103.5,-69 103.5,-91 169.5,-91 169.5,-69 103.5,-69"/>
<text text-anchor="start" x="106.2401" y="-76.7" font-family="Helvetica,sans-Serif" font-size="11.00" fill="#000000">datetime[19]</text>
<polygon fill="none" stroke="#000000" points="10.5,-47 10.5,-69 103.5,-69 103.5,-47 10.5,-47"/>
<text text-anchor="start" x="30.5" y="-54.1" font-family="Helvetica,sans-Serif" font-size="11.00" fill="#000000">updated_at</text>
<polygon fill="none" stroke="#000000" points="103.5,-47 103.5,-69 169.5,-69 169.5,-47 103.5,-47"/>
<text text-anchor="start" x="106.2401" y="-54.7" font-family="Helvetica,sans-Serif" font-size="11.00" fill="#000000">datetime[19]</text>
<polygon fill="none" stroke="#000000" points="10.5,-25 10.5,-47 103.5,-47 103.5,-25 10.5,-25"/>
<text text-anchor="start" x="30.5" y="-32.1" font-family="Helvetica,sans-Serif" font-size="11.00" fill="#000000">deleted_at</text>
<polygon fill="none" stroke="#000000" points="103.5,-25 103.5,-47 169.5,-47 169.5,-25 103.5,-25"/>
<text text-anchor="start" x="106.2401" y="-32.7" font-family="Helvetica,sans-Serif" font-size="11.00" fill="#000000">datetime[19]</text>
<polygon fill="#ffffff" stroke="transparent" points="10.5,-6 10.5,-25 48.5,-25 48.5,-6 10.5,-6"/>
<polygon fill="none" stroke="#000000" points="10.5,-6 10.5,-25 48.5,-25 48.5,-6 10.5,-6"/>
<text text-anchor="start" x="13.5" y="-12.1" font-family="Helvetica,sans-Serif" font-size="11.00" fill="#000000">&lt; 0</text>
<polygon fill="#ffffff" stroke="transparent" points="48.5,-6 48.5,-25 103.5,-25 103.5,-6 48.5,-6"/>
<polygon fill="none" stroke="#000000" points="48.5,-6 48.5,-25 103.5,-25 103.5,-6 48.5,-6"/>
<text text-anchor="start" x="68.1105" y="-12.1" font-family="Helvetica,sans-Serif" font-size="11.00" fill="#000000">0 rows</text>
<polygon fill="#ffffff" stroke="transparent" points="103.5,-6 103.5,-25 169.5,-25 169.5,-6 103.5,-6"/>
<polygon fill="none" stroke="#000000" points="103.5,-6 103.5,-25 169.5,-25 169.5,-6 103.5,-6"/>
<text text-anchor="start" x="150.9053" y="-12.1" font-family="Helvetica,sans-Serif" font-size="11.00" fill="#000000">0 &gt;</text>
<polygon fill="none" stroke="#000000" stroke-width="2" points="9,-5 9,-181 170,-181 170,-5 9,-5"/>
</a>
</g>
</g>
</g>
</svg>
