<?xml version="1.0" encoding="UTF-8" standalone="no"?>
<!DOCTYPE svg PUBLIC "-//W3C//DTD SVG 1.1//EN"
 "http://www.w3.org/Graphics/SVG/1.1/DTD/svg11.dtd">
<!-- Generated by graphviz version 2.40.1 (20161225.0304)
 -->
<!-- Title: notice_icons Pages: 1 -->
<svg width="205pt" height="128pt"
 viewBox="0.00 0.00 205.00 128.00" xmlns="http://www.w3.org/2000/svg" xmlns:xlink="http://www.w3.org/1999/xlink">
<g id="graph0" class="graph" transform="scale(1 1) rotate(0) translate(4 124)">
<title>notice_icons</title>
<polygon fill="#ffffff" stroke="transparent" points="-4,4 -4,-124 201,-124 201,4 -4,4"/>
<!-- notice_icons -->
<g id="node1" class="node">
<title>notice_icons</title>
<g id="a_node1"><a xlink:href="../../tables/notice_icons.html" xlink:title="notice_icons" target="_top">
<polygon fill="#ffffff" stroke="transparent" points="8,-4 8,-116 189,-116 189,-4 8,-4"/>
<polygon fill="#f5f5f5" stroke="transparent" points="10.5,-91 10.5,-114 187.5,-114 187.5,-91 10.5,-91"/>
<polygon fill="none" stroke="#000000" points="10.5,-91 10.5,-114 187.5,-114 187.5,-91 10.5,-91"/>
<text text-anchor="start" x="15.5" y="-100.1" font-family="Helvetica,sans-Serif" font-weight="bold" font-size="11.00" fill="#000000">notice_icons</text>
<text text-anchor="start" x="152.5437" y="-99.1" font-family="Helvetica,sans-Serif" font-size="11.00" fill="#000000">[table]</text>
<polygon fill="none" stroke="#000000" points="10.5,-69 10.5,-91 104.5,-91 104.5,-69 10.5,-69"/>
<image xlink:href="../../images/primaryKeys.png" width="11px" height="12px" preserveAspectRatio="xMinYMin meet" x="15.5" y="-86"/>
<text text-anchor="start" x="30.5" y="-76.1" font-family="Helvetica,sans-Serif" font-size="11.00" fill="#000000">id</text>
<polygon fill="none" stroke="#000000" points="104.5,-69 104.5,-91 187.5,-91 187.5,-69 104.5,-69"/>
<text text-anchor="start" x="107.1783" y="-76.7" font-family="Helvetica,sans-Serif" font-size="11.00" fill="#000000">int unsigned[10]</text>
<polygon fill="none" stroke="#000000" points="10.5,-47 10.5,-69 104.5,-69 104.5,-47 10.5,-47"/>
<text text-anchor="start" x="30.5" y="-54.1" font-family="Helvetica,sans-Serif" font-size="11.00" fill="#000000">title</text>
<polygon fill="none" stroke="#000000" points="104.5,-47 104.5,-69 187.5,-69 187.5,-47 104.5,-47"/>
<text text-anchor="start" x="107.5" y="-54.7" font-family="Helvetica,sans-Serif" font-size="11.00" fill="#000000">varchar[20]</text>
<polygon fill="none" stroke="#000000" points="10.5,-25 10.5,-47 104.5,-47 104.5,-25 10.5,-25"/>
<text text-anchor="start" x="30.5" y="-32.1" font-family="Helvetica,sans-Serif" font-size="11.00" fill="#000000">icon_url</text>
<polygon fill="none" stroke="#000000" points="104.5,-25 104.5,-47 187.5,-47 187.5,-25 104.5,-25"/>
<text text-anchor="start" x="107.5" y="-32.7" font-family="Helvetica,sans-Serif" font-size="11.00" fill="#000000">varchar[255]</text>
<polygon fill="#ffffff" stroke="transparent" points="10.5,-6 10.5,-25 48.5,-25 48.5,-6 10.5,-6"/>
<polygon fill="none" stroke="#000000" points="10.5,-6 10.5,-25 48.5,-25 48.5,-6 10.5,-6"/>
<text text-anchor="start" x="13.5" y="-12.1" font-family="Helvetica,sans-Serif" font-size="11.00" fill="#000000">&lt; 0</text>
<polygon fill="#ffffff" stroke="transparent" points="48.5,-6 48.5,-25 104.5,-25 104.5,-6 48.5,-6"/>
<polygon fill="none" stroke="#000000" points="48.5,-6 48.5,-25 104.5,-25 104.5,-6 48.5,-6"/>
<text text-anchor="start" x="69.1105" y="-12.1" font-family="Helvetica,sans-Serif" font-size="11.00" fill="#000000">8 rows</text>
<polygon fill="#ffffff" stroke="transparent" points="104.5,-6 104.5,-25 187.5,-25 187.5,-6 104.5,-6"/>
<polygon fill="none" stroke="#000000" points="104.5,-6 104.5,-25 187.5,-25 187.5,-6 104.5,-6"/>
<text text-anchor="start" x="168.9053" y="-12.1" font-family="Helvetica,sans-Serif" font-size="11.00" fill="#000000">0 &gt;</text>
<polygon fill="none" stroke="#000000" stroke-width="2" points="9,-5 9,-115 188,-115 188,-5 9,-5"/>
</a>
</g>
</g>
</g>
</svg>
