<?xml version="1.0" encoding="UTF-8" standalone="no"?>
<!DOCTYPE svg PUBLIC "-//W3C//DTD SVG 1.1//EN"
 "http://www.w3.org/Graphics/SVG/1.1/DTD/svg11.dtd">
<!-- Generated by graphviz version 2.40.1 (20161225.0304)
 -->
<!-- Title: prefectures Pages: 1 -->
<svg width="228pt" height="106pt"
 viewBox="0.00 0.00 228.00 106.00" xmlns="http://www.w3.org/2000/svg" xmlns:xlink="http://www.w3.org/1999/xlink">
<g id="graph0" class="graph" transform="scale(1 1) rotate(0) translate(4 102)">
<title>prefectures</title>
<polygon fill="#ffffff" stroke="transparent" points="-4,4 -4,-102 224,-102 224,4 -4,4"/>
<!-- prefectures -->
<g id="node1" class="node">
<title>prefectures</title>
<g id="a_node1"><a xlink:href="../../tables/prefectures.html" xlink:title="prefectures" target="_top">
<polygon fill="#ffffff" stroke="transparent" points="8,-4 8,-94 212,-94 212,-4 8,-4"/>
<polygon fill="#f5f5f5" stroke="transparent" points="10,-69 10,-92 210,-92 210,-69 10,-69"/>
<polygon fill="none" stroke="#000000" points="10,-69 10,-92 210,-92 210,-69 10,-69"/>
<text text-anchor="start" x="15" y="-78.1" font-family="Helvetica,sans-Serif" font-weight="bold" font-size="11.00" fill="#000000">prefectures</text>
<text text-anchor="start" x="175.0437" y="-77.1" font-family="Helvetica,sans-Serif" font-size="11.00" fill="#000000">[table]</text>
<polygon fill="none" stroke="#000000" points="10,-47 10,-69 127,-69 127,-47 10,-47"/>
<image xlink:href="../../images/primaryKeys.png" width="11px" height="12px" preserveAspectRatio="xMinYMin meet" x="15" y="-64"/>
<text text-anchor="start" x="30" y="-54.1" font-family="Helvetica,sans-Serif" font-size="11.00" fill="#000000">id</text>
<polygon fill="none" stroke="#000000" points="127,-47 127,-69 210,-69 210,-47 127,-47"/>
<text text-anchor="start" x="129.6783" y="-54.7" font-family="Helvetica,sans-Serif" font-size="11.00" fill="#000000">int unsigned[10]</text>
<polygon fill="none" stroke="#000000" points="10,-25 10,-47 127,-47 127,-25 10,-25"/>
<text text-anchor="start" x="30" y="-32.1" font-family="Helvetica,sans-Serif" font-size="11.00" fill="#000000">prefecture_name</text>
<polygon fill="none" stroke="#000000" points="127,-25 127,-47 210,-47 210,-25 127,-25"/>
<text text-anchor="start" x="130" y="-32.7" font-family="Helvetica,sans-Serif" font-size="11.00" fill="#000000">varchar[20]</text>
<polygon fill="#ffffff" stroke="transparent" points="10,-6 10,-25 60,-25 60,-6 10,-6"/>
<polygon fill="none" stroke="#000000" points="10,-6 10,-25 60,-25 60,-6 10,-6"/>
<text text-anchor="start" x="13" y="-12.1" font-family="Helvetica,sans-Serif" font-size="11.00" fill="#000000">&lt; 0</text>
<polygon fill="#ffffff" stroke="transparent" points="60,-6 60,-25 127,-25 127,-6 60,-6"/>
<polygon fill="none" stroke="#000000" points="60,-6 60,-25 127,-25 127,-6 60,-6"/>
<text text-anchor="start" x="91.6105" y="-12.1" font-family="Helvetica,sans-Serif" font-size="11.00" fill="#000000">2 rows</text>
<polygon fill="#ffffff" stroke="transparent" points="127,-6 127,-25 210,-25 210,-6 127,-6"/>
<polygon fill="none" stroke="#000000" points="127,-6 127,-25 210,-25 210,-6 127,-6"/>
<text text-anchor="start" x="191.4053" y="-12.1" font-family="Helvetica,sans-Serif" font-size="11.00" fill="#000000">0 &gt;</text>
<polygon fill="none" stroke="#000000" stroke-width="2" points="9,-5 9,-93 211,-93 211,-5 9,-5"/>
</a>
</g>
</g>
</g>
</svg>
