<?xml version="1.0" encoding="UTF-8" standalone="no"?>
<!DOCTYPE svg PUBLIC "-//W3C//DTD SVG 1.1//EN"
 "http://www.w3.org/Graphics/SVG/1.1/DTD/svg11.dtd">
<!-- Generated by graphviz version 2.40.1 (20161225.0304)
 -->
<!-- Title: purchase_limit_conditions Pages: 1 -->
<svg width="284pt" height="84pt"
 viewBox="0.00 0.00 284.00 84.00" xmlns="http://www.w3.org/2000/svg" xmlns:xlink="http://www.w3.org/1999/xlink">
<g id="graph0" class="graph" transform="scale(1 1) rotate(0) translate(4 80)">
<title>purchase_limit_conditions</title>
<polygon fill="#ffffff" stroke="transparent" points="-4,4 -4,-80 280,-80 280,4 -4,4"/>
<!-- purchase_limit_conditions -->
<g id="node1" class="node">
<title>purchase_limit_conditions</title>
<g id="a_node1"><a xlink:href="../../tables/purchase_limit_conditions.html" xlink:title="purchase_limit_conditions" target="_top">
<polygon fill="#ffffff" stroke="transparent" points="8,-4 8,-72 268,-72 268,-4 8,-4"/>
<polygon fill="#f5f5f5" stroke="transparent" points="10,-47 10,-70 266,-70 266,-47 10,-47"/>
<polygon fill="none" stroke="#000000" points="10,-47 10,-70 266,-70 266,-47 10,-47"/>
<text text-anchor="start" x="15" y="-56.1" font-family="Helvetica,sans-Serif" font-weight="bold" font-size="11.00" fill="#000000">purchase_limit_conditions</text>
<text text-anchor="start" x="231.0437" y="-55.1" font-family="Helvetica,sans-Serif" font-size="11.00" fill="#000000">[table]</text>
<polygon fill="none" stroke="#000000" points="10,-25 10,-47 183,-47 183,-25 10,-25"/>
<image xlink:href="../../images/primaryKeys.png" width="11px" height="12px" preserveAspectRatio="xMinYMin meet" x="15" y="-42"/>
<text text-anchor="start" x="30" y="-32.1" font-family="Helvetica,sans-Serif" font-size="11.00" fill="#000000">id</text>
<polygon fill="none" stroke="#000000" points="183,-25 183,-47 266,-47 266,-25 183,-25"/>
<text text-anchor="start" x="185.6783" y="-32.7" font-family="Helvetica,sans-Serif" font-size="11.00" fill="#000000">int unsigned[10]</text>
<polygon fill="#ffffff" stroke="transparent" points="10,-6 10,-25 88,-25 88,-6 10,-6"/>
<polygon fill="none" stroke="#000000" points="10,-6 10,-25 88,-25 88,-6 10,-6"/>
<text text-anchor="start" x="13" y="-12.1" font-family="Helvetica,sans-Serif" font-size="11.00" fill="#000000">&lt; 0</text>
<polygon fill="#ffffff" stroke="transparent" points="88,-6 88,-25 183,-25 183,-6 88,-6"/>
<polygon fill="none" stroke="#000000" points="88,-6 88,-25 183,-25 183,-6 88,-6"/>
<text text-anchor="start" x="147.6105" y="-12.1" font-family="Helvetica,sans-Serif" font-size="11.00" fill="#000000">0 rows</text>
<polygon fill="#ffffff" stroke="transparent" points="183,-6 183,-25 266,-25 266,-6 183,-6"/>
<polygon fill="none" stroke="#000000" points="183,-6 183,-25 266,-25 266,-6 183,-6"/>
<text text-anchor="start" x="247.4053" y="-12.1" font-family="Helvetica,sans-Serif" font-size="11.00" fill="#000000">0 &gt;</text>
<polygon fill="none" stroke="#000000" stroke-width="2" points="9,-5 9,-71 267,-71 267,-5 9,-5"/>
</a>
</g>
</g>
</g>
</svg>
