<?xml version="1.0" encoding="UTF-8" standalone="no"?>
<!DOCTYPE svg PUBLIC "-//W3C//DTD SVG 1.1//EN"
 "http://www.w3.org/Graphics/SVG/1.1/DTD/svg11.dtd">
<!-- Generated by graphviz version 2.40.1 (20161225.0304)
 -->
<!-- Title: user_invoice_informations Pages: 1 -->
<svg width="284pt" height="106pt"
 viewBox="0.00 0.00 284.00 106.00" xmlns="http://www.w3.org/2000/svg" xmlns:xlink="http://www.w3.org/1999/xlink">
<g id="graph0" class="graph" transform="scale(1 1) rotate(0) translate(4 102)">
<title>user_invoice_informations</title>
<polygon fill="#ffffff" stroke="transparent" points="-4,4 -4,-102 280,-102 280,4 -4,4"/>
<!-- user_invoice_informations -->
<g id="node1" class="node">
<title>user_invoice_informations</title>
<g id="a_node1"><a xlink:href="../../tables/user_invoice_informations.html" xlink:title="user_invoice_informations" target="_top">
<polygon fill="#ffffff" stroke="transparent" points="8,-4 8,-94 268,-94 268,-4 8,-4"/>
<polygon fill="#f5f5f5" stroke="transparent" points="10,-69 10,-92 266,-92 266,-69 10,-69"/>
<polygon fill="none" stroke="#000000" points="10,-69 10,-92 266,-92 266,-69 10,-69"/>
<text text-anchor="start" x="15" y="-78.1" font-family="Helvetica,sans-Serif" font-weight="bold" font-size="11.00" fill="#000000">user_invoice_informations</text>
<text text-anchor="start" x="231.0437" y="-77.1" font-family="Helvetica,sans-Serif" font-size="11.00" fill="#000000">[table]</text>
<polygon fill="none" stroke="#000000" points="10,-47 10,-69 183,-69 183,-47 10,-47"/>
<image xlink:href="../../images/primaryKeys.png" width="11px" height="12px" preserveAspectRatio="xMinYMin meet" x="15" y="-64"/>
<text text-anchor="start" x="30" y="-54.1" font-family="Helvetica,sans-Serif" font-size="11.00" fill="#000000">user_id</text>
<polygon fill="none" stroke="#000000" points="183,-47 183,-69 266,-69 266,-47 183,-47"/>
<text text-anchor="start" x="185.6783" y="-54.7" font-family="Helvetica,sans-Serif" font-size="11.00" fill="#000000">int unsigned[10]</text>
<polygon fill="none" stroke="#000000" points="10,-25 10,-47 183,-47 183,-25 10,-25"/>
<text text-anchor="start" x="30" y="-32.1" font-family="Helvetica,sans-Serif" font-size="11.00" fill="#000000">post_code</text>
<polygon fill="none" stroke="#000000" points="183,-25 183,-47 266,-47 266,-25 183,-25"/>
<text text-anchor="start" x="186" y="-32.7" font-family="Helvetica,sans-Serif" font-size="11.00" fill="#000000">int[10]</text>
<polygon fill="#ffffff" stroke="transparent" points="10,-6 10,-25 88,-25 88,-6 10,-6"/>
<polygon fill="none" stroke="#000000" points="10,-6 10,-25 88,-25 88,-6 10,-6"/>
<text text-anchor="start" x="13" y="-12.1" font-family="Helvetica,sans-Serif" font-size="11.00" fill="#000000">&lt; 0</text>
<polygon fill="#ffffff" stroke="transparent" points="88,-6 88,-25 183,-25 183,-6 88,-6"/>
<polygon fill="none" stroke="#000000" points="88,-6 88,-25 183,-25 183,-6 88,-6"/>
<text text-anchor="start" x="147.6105" y="-12.1" font-family="Helvetica,sans-Serif" font-size="11.00" fill="#000000">0 rows</text>
<polygon fill="#ffffff" stroke="transparent" points="183,-6 183,-25 266,-25 266,-6 183,-6"/>
<polygon fill="none" stroke="#000000" points="183,-6 183,-25 266,-25 266,-6 183,-6"/>
<text text-anchor="start" x="247.4053" y="-12.1" font-family="Helvetica,sans-Serif" font-size="11.00" fill="#000000">0 &gt;</text>
<polygon fill="none" stroke="#000000" stroke-width="2" points="9,-5 9,-93 267,-93 267,-5 9,-5"/>
</a>
</g>
</g>
</g>
</svg>
