<?xml version="1.0" encoding="UTF-8" standalone="no"?>
<!DOCTYPE svg PUBLIC "-//W3C//DTD SVG 1.1//EN"
 "http://www.w3.org/Graphics/SVG/1.1/DTD/svg11.dtd">
<!-- Generated by graphviz version 2.40.1 (20161225.0304)
 -->
<!-- Title: user_payment_informations Pages: 1 -->
<svg width="292pt" height="128pt"
 viewBox="0.00 0.00 292.00 128.00" xmlns="http://www.w3.org/2000/svg" xmlns:xlink="http://www.w3.org/1999/xlink">
<g id="graph0" class="graph" transform="scale(1 1) rotate(0) translate(4 124)">
<title>user_payment_informations</title>
<polygon fill="#ffffff" stroke="transparent" points="-4,4 -4,-124 288,-124 288,4 -4,4"/>
<!-- user_payment_informations -->
<g id="node1" class="node">
<title>user_payment_informations</title>
<g id="a_node1"><a xlink:href="../../tables/user_payment_informations.html" xlink:title="user_payment_informations" target="_top">
<polygon fill="#ffffff" stroke="transparent" points="8,-4 8,-116 276,-116 276,-4 8,-4"/>
<polygon fill="#f5f5f5" stroke="transparent" points="10,-91 10,-114 274,-114 274,-91 10,-91"/>
<polygon fill="none" stroke="#000000" points="10,-91 10,-114 274,-114 274,-91 10,-91"/>
<text text-anchor="start" x="15" y="-100.1" font-family="Helvetica,sans-Serif" font-weight="bold" font-size="11.00" fill="#000000">user_payment_informations</text>
<text text-anchor="start" x="239.0437" y="-99.1" font-family="Helvetica,sans-Serif" font-size="11.00" fill="#000000">[table]</text>
<polygon fill="none" stroke="#000000" points="10,-69 10,-91 191,-91 191,-69 10,-69"/>
<image xlink:href="../../images/primaryKeys.png" width="11px" height="12px" preserveAspectRatio="xMinYMin meet" x="15" y="-86"/>
<text text-anchor="start" x="30" y="-76.1" font-family="Helvetica,sans-Serif" font-size="11.00" fill="#000000">user_id</text>
<polygon fill="none" stroke="#000000" points="191,-69 191,-91 274,-91 274,-69 191,-69"/>
<text text-anchor="start" x="193.6783" y="-76.7" font-family="Helvetica,sans-Serif" font-size="11.00" fill="#000000">int unsigned[10]</text>
<polygon fill="none" stroke="#000000" points="10,-47 10,-69 191,-69 191,-47 10,-47"/>
<text text-anchor="start" x="30" y="-54.1" font-family="Helvetica,sans-Serif" font-size="11.00" fill="#000000">creditcard_token</text>
<polygon fill="none" stroke="#000000" points="191,-47 191,-69 274,-69 274,-47 191,-47"/>
<text text-anchor="start" x="194" y="-54.7" font-family="Helvetica,sans-Serif" font-size="11.00" fill="#000000">int[10]</text>
<polygon fill="none" stroke="#000000" points="10,-25 10,-47 191,-47 191,-25 10,-25"/>
<text text-anchor="start" x="30" y="-32.1" font-family="Helvetica,sans-Serif" font-size="11.00" fill="#000000">creditcard_suffix</text>
<polygon fill="none" stroke="#000000" points="191,-25 191,-47 274,-47 274,-25 191,-25"/>
<text text-anchor="start" x="194" y="-32.7" font-family="Helvetica,sans-Serif" font-size="11.00" fill="#000000">int[10]</text>
<polygon fill="#ffffff" stroke="transparent" points="10,-6 10,-25 92,-25 92,-6 10,-6"/>
<polygon fill="none" stroke="#000000" points="10,-6 10,-25 92,-25 92,-6 10,-6"/>
<text text-anchor="start" x="13" y="-12.1" font-family="Helvetica,sans-Serif" font-size="11.00" fill="#000000">&lt; 0</text>
<polygon fill="#ffffff" stroke="transparent" points="92,-6 92,-25 191,-25 191,-6 92,-6"/>
<polygon fill="none" stroke="#000000" points="92,-6 92,-25 191,-25 191,-6 92,-6"/>
<text text-anchor="start" x="155.6105" y="-12.1" font-family="Helvetica,sans-Serif" font-size="11.00" fill="#000000">0 rows</text>
<polygon fill="#ffffff" stroke="transparent" points="191,-6 191,-25 274,-25 274,-6 191,-6"/>
<polygon fill="none" stroke="#000000" points="191,-6 191,-25 274,-25 274,-6 191,-6"/>
<text text-anchor="start" x="255.4053" y="-12.1" font-family="Helvetica,sans-Serif" font-size="11.00" fill="#000000">0 &gt;</text>
<polygon fill="none" stroke="#000000" stroke-width="2" points="9,-5 9,-115 275,-115 275,-5 9,-5"/>
</a>
</g>
</g>
</g>
</svg>
